<svg width="79" height="32" viewBox="0 0 79 32" fill="none" xmlns="http://www.w3.org/2000/svg">
<path d="M40.5284 6V1.63636H41.0312V3.24716H41.0739C41.1108 3.19034 41.1619 3.1179 41.2273 3.02983C41.294 2.94034 41.3892 2.8608 41.5128 2.79119C41.6378 2.72017 41.8068 2.68466 42.0199 2.68466C42.2955 2.68466 42.5384 2.75355 42.7486 2.89134C42.9588 3.02912 43.1229 3.22443 43.2408 3.47727C43.3587 3.73011 43.4176 4.02841 43.4176 4.37216C43.4176 4.71875 43.3587 5.01918 43.2408 5.27344C43.1229 5.52628 42.9595 5.7223 42.7507 5.86151C42.5419 5.99929 42.3011 6.06818 42.0284 6.06818C41.8182 6.06818 41.6499 6.03338 41.5234 5.96378C41.397 5.89276 41.2997 5.8125 41.2315 5.72301C41.1634 5.6321 41.1108 5.55682 41.0739 5.49716H41.0142V6H40.5284ZM41.0227 4.36364C41.0227 4.6108 41.0589 4.82884 41.1314 5.01776C41.2038 5.20526 41.3097 5.35227 41.4489 5.45881C41.5881 5.56392 41.7585 5.61648 41.9602 5.61648C42.1705 5.61648 42.3459 5.56108 42.4865 5.45028C42.6286 5.33807 42.7351 5.1875 42.8061 4.99858C42.8786 4.80824 42.9148 4.59659 42.9148 4.36364C42.9148 4.13352 42.8793 3.92614 42.8082 3.74148C42.7386 3.5554 42.6328 3.40838 42.4908 3.30043C42.3501 3.19105 42.1733 3.13636 41.9602 3.13636C41.7557 3.13636 41.5838 3.18821 41.4446 3.2919C41.3054 3.39418 41.2003 3.53764 41.1293 3.7223C41.0582 3.90554 41.0227 4.11932 41.0227 4.36364Z" fill="#FBFBFB"/>
<path d="M43.9347 17.1032C43.6985 16.9668 43.5245 16.7868 43.4125 16.5631C43.3013 16.3381 43.2578 16.0867 43.2821 15.8088C43.3072 15.5296 43.4063 15.24 43.5796 14.9398C43.7515 14.6421 43.9517 14.4133 44.1802 14.2532C44.4088 14.0932 44.6485 14.0061 44.8994 13.9919C45.1504 13.9777 45.3952 14.0395 45.6339 14.1773C45.8184 14.2838 45.9464 14.3987 46.0179 14.522C46.0914 14.6448 46.134 14.7613 46.1458 14.8714C46.1596 14.9811 46.1683 15.0697 46.1719 15.1374L46.2088 15.1587L47.0142 13.7637L47.4497 14.0151L45.2678 17.7942L44.8471 17.5513L45.0985 17.1158L45.0469 17.086C44.9851 17.1192 44.9019 17.1581 44.7974 17.2027C44.6936 17.2461 44.5692 17.267 44.4242 17.2653C44.2799 17.2623 44.1168 17.2083 43.9347 17.1032ZM44.2196 16.7461C44.3943 16.847 44.5682 16.8867 44.7413 16.8652C44.9151 16.8426 45.0803 16.7682 45.2368 16.642C45.394 16.5146 45.5343 16.3439 45.6579 16.1299C45.7801 15.9183 45.8562 15.7154 45.8863 15.5212C45.9172 15.3258 45.8979 15.149 45.8284 14.9908C45.7597 14.8314 45.6368 14.7005 45.4597 14.5983C45.2751 14.4917 45.094 14.4503 44.9163 14.474C44.7406 14.4972 44.5754 14.5716 44.4209 14.6972C44.2683 14.8224 44.1344 14.9846 44.0194 15.1838C43.9029 15.3856 43.8278 15.5866 43.7942 15.787C43.7624 15.9868 43.7794 16.1705 43.8451 16.338C43.9127 16.505 44.0375 16.641 44.2196 16.7461Z" fill="#FBFBFB"/>
<path d="M1.4233 22.0767C1.21591 22.0767 1.0277 22.0376 0.858665 21.9595C0.689631 21.88 0.555398 21.7656 0.455966 21.6165C0.356534 21.4659 0.306818 21.2841 0.306818 21.071C0.306818 20.8835 0.34375 20.7315 0.417614 20.6151C0.491477 20.4972 0.590199 20.4048 0.713778 20.3381C0.837358 20.2713 0.973722 20.2216 1.12287 20.1889C1.27344 20.1548 1.42472 20.1278 1.5767 20.108C1.77557 20.0824 1.93679 20.0632 2.06037 20.0504C2.18537 20.0362 2.27628 20.0128 2.3331 19.9801C2.39134 19.9474 2.42045 19.8906 2.42045 19.8097V19.7926C2.42045 19.5824 2.36293 19.419 2.24787 19.3026C2.13423 19.1861 1.96165 19.1278 1.73011 19.1278C1.49006 19.1278 1.30185 19.1804 1.16548 19.2855C1.02912 19.3906 0.933239 19.5028 0.877841 19.6222L0.400568 19.4517C0.485795 19.2528 0.599432 19.098 0.741477 18.9872C0.884943 18.875 1.04119 18.7969 1.21023 18.7528C1.38068 18.7074 1.5483 18.6847 1.71307 18.6847C1.81818 18.6847 1.93892 18.6974 2.07528 18.723C2.21307 18.7472 2.34588 18.7976 2.47372 18.8743C2.60298 18.951 2.71023 19.0668 2.79545 19.2216C2.88068 19.3764 2.9233 19.5838 2.9233 19.8438V22H2.42045V21.5568H2.39489C2.3608 21.6278 2.30398 21.7038 2.22443 21.7848C2.14489 21.8658 2.03906 21.9347 1.90696 21.9915C1.77486 22.0483 1.61364 22.0767 1.4233 22.0767ZM1.5 21.625C1.69886 21.625 1.86648 21.5859 2.00284 21.5078C2.14063 21.4297 2.24432 21.3288 2.31392 21.2053C2.38494 21.0817 2.42045 20.9517 2.42045 20.8153V20.3551C2.39915 20.3807 2.35227 20.4041 2.27983 20.4254C2.20881 20.4453 2.12642 20.4631 2.03267 20.4787C1.94034 20.4929 1.85014 20.5057 1.76207 20.517C1.67543 20.527 1.60511 20.5355 1.55114 20.5426C1.42045 20.5597 1.2983 20.5874 1.18466 20.6257C1.07244 20.6626 0.981534 20.7187 0.911932 20.794C0.84375 20.8679 0.809659 20.9687 0.809659 21.0966C0.809659 21.2713 0.87429 21.4034 1.00355 21.4929C1.13423 21.581 1.29972 21.625 1.5 21.625Z" fill="#FBFBFB"/>
<rect x="5" y="8" width="73" height="23" stroke="#FBFBFB" stroke-width="2"/>
<path d="M5 8.5C7.4 9.3 54.6667 23.5 78 30.5" stroke="#FBFBFB" stroke-width="2"/>
</svg>
