<svg width="162" height="152" viewBox="0 0 162 152" fill="none" xmlns="http://www.w3.org/2000/svg">
<rect x="2" y="52" width="98" height="98" stroke="#FBFBFB" stroke-width="2"/>
<path d="M51 1H151V101M51 1V101H151M51 1L2 52M151 101L99.5 150.5" stroke="#FBFBFB" stroke-width="2"/>
<line x1="99.2929" y1="52.2929" x2="149.293" y2="2.29289" stroke="#FBFBFB" stroke-width="2"/>
<line x1="1.29289" y1="150.293" x2="51.2929" y2="100.293" stroke="#FBFBFB" stroke-width="2"/>
<path d="M158.372 61.1278C158.027 61.1278 157.713 61.0627 157.431 60.9325C157.149 60.8 156.926 60.6094 156.76 60.3608C156.594 60.1098 156.511 59.8068 156.511 59.4517C156.511 59.1392 156.573 58.8859 156.696 58.6918C156.819 58.4953 156.984 58.3414 157.19 58.2301C157.396 58.1188 157.623 58.036 157.871 57.9815C158.122 57.9247 158.375 57.8797 158.628 57.8466C158.959 57.804 159.228 57.772 159.434 57.7507C159.642 57.727 159.794 57.688 159.888 57.6335C159.986 57.5791 160.034 57.4844 160.034 57.3494V57.321C160.034 56.9706 159.938 56.6984 159.746 56.5043C159.557 56.3101 159.269 56.2131 158.884 56.2131C158.483 56.2131 158.17 56.3007 157.942 56.4759C157.715 56.651 157.555 56.8381 157.463 57.0369L156.668 56.7528C156.81 56.4214 156.999 56.1634 157.236 55.9787C157.475 55.7917 157.735 55.6615 158.017 55.5881C158.301 55.5123 158.58 55.4744 158.855 55.4744C159.03 55.4744 159.232 55.4957 159.459 55.5384C159.688 55.5786 159.91 55.6626 160.123 55.7905C160.338 55.9183 160.517 56.1113 160.659 56.3693C160.801 56.6274 160.872 56.973 160.872 57.4062V61H160.034V60.2614H159.991C159.935 60.3797 159.84 60.5064 159.707 60.6413C159.575 60.7763 159.398 60.8911 159.178 60.9858C158.958 61.0805 158.689 61.1278 158.372 61.1278ZM158.5 60.375C158.831 60.375 159.111 60.3099 159.338 60.1797C159.568 60.0495 159.741 59.8814 159.857 59.6754C159.975 59.4695 160.034 59.2528 160.034 59.0256V58.2585C159.999 58.3011 159.92 58.3402 159.8 58.3757C159.681 58.4089 159.544 58.4384 159.388 58.4645C159.234 58.4882 159.084 58.5095 158.937 58.5284C158.792 58.545 158.675 58.5592 158.585 58.571C158.367 58.5994 158.164 58.6456 157.974 58.7095C157.787 58.7711 157.636 58.8646 157.52 58.9901C157.406 59.1132 157.349 59.2812 157.349 59.4943C157.349 59.7855 157.457 60.0057 157.673 60.1548C157.89 60.3016 158.166 60.375 158.5 60.375Z" fill="#FBFBFB"/>
</svg>
