<svg width="75" height="82" viewBox="0 0 75 82" fill="none" xmlns="http://www.w3.org/2000/svg">
<rect x="1" y="8" width="73" height="73" stroke="#FBFBFB" stroke-width="2"/>
<line x1="2.70711" y1="8.29289" x2="73.7071" y2="79.2929" stroke="#FBFBFB" stroke-width="2"/>
<path d="M35.8352 2.72727L36.6193 4.06534L37.4034 2.72727H37.983L36.9261 4.36364L37.983 6H37.4034L36.6193 4.73011L35.8352 6H35.2557L36.2955 4.36364L35.2557 2.72727H35.8352Z" fill="#FBFBFB"/>
<path d="M42.9238 44.9436C42.7004 44.7871 42.5427 44.5926 42.4506 44.36C42.3594 44.1262 42.3381 43.8719 42.3865 43.5972C42.4358 43.3213 42.5598 43.0414 42.7586 42.7574C42.9558 42.4759 43.1751 42.2653 43.4167 42.1258C43.6583 41.9863 43.9048 41.9205 44.156 41.9282C44.4072 41.9359 44.6457 42.0188 44.8715 42.1768C45.046 42.299 45.1635 42.4247 45.224 42.5537C45.2865 42.6825 45.3188 42.8022 45.321 42.913C45.3252 43.0234 45.3261 43.1125 45.3238 43.1802L45.3587 43.2047L46.2826 41.8852L46.6945 42.1736L44.1916 45.7481L43.7937 45.4694L44.0821 45.0575L44.0332 45.0233C43.9687 45.051 43.8825 45.0825 43.7745 45.1179C43.6673 45.1521 43.5416 45.162 43.3973 45.1477C43.2538 45.1322 43.096 45.0641 42.9238 44.9436ZM43.2387 44.6127C43.4039 44.7283 43.5737 44.7831 43.748 44.7768C43.9232 44.7694 44.0942 44.7097 44.2611 44.5976C44.4288 44.4844 44.5835 44.3266 44.7253 44.1241C44.8654 43.924 44.9589 43.7285 45.0058 43.5377C45.0536 43.3457 45.0498 43.1678 44.9944 43.0042C44.9398 42.8394 44.8288 42.6984 44.6612 42.5811C44.4867 42.4589 44.3099 42.4018 44.1308 42.4099C43.9537 42.4177 43.7827 42.4774 43.6178 42.5891C43.4548 42.7005 43.3074 42.8504 43.1754 43.0389C43.0418 43.2297 42.9495 43.4234 42.8985 43.6201C42.8494 43.8164 42.8504 44.0009 42.9012 44.1734C42.954 44.3457 43.0665 44.4921 43.2387 44.6127Z" fill="#FBFBFB"/>
</svg>
