<svg width="100" height="100" viewBox="0 0 100 100" fill="none" xmlns="http://www.w3.org/2000/svg">
<circle cx="50" cy="50" r="49" stroke="#FBFBFB" stroke-width="2"/>
<path d="M99 50V50.0001L99 50.0004L98.9996 50.0026C98.9992 50.0049 98.998 50.0105 98.9947 50.0198C98.9879 50.0385 98.9713 50.0749 98.9324 50.1285C98.8507 50.2411 98.6942 50.3975 98.4195 50.5854C97.8664 50.9639 96.986 51.3684 95.7565 51.7754C93.311 52.5848 89.7189 53.3291 85.2167 53.9594C76.2271 55.2179 63.7757 56 50 56C36.2243 56 23.7729 55.2179 14.7833 53.9594C10.2811 53.3291 6.68903 52.5848 4.24348 51.7754C3.01398 51.3684 2.13364 50.9639 1.58048 50.5854C1.30584 50.3975 1.14925 50.2411 1.0676 50.1285C1.02869 50.0749 1.0121 50.0385 1.00532 50.0198C1.00197 50.0105 1.00077 50.0049 1.00035 50.0026L1.00002 50.0004L1 50.0001L1 50L1 49.9999L1.00002 49.9996L1.00035 49.9974C1.00077 49.9951 1.00197 49.9895 1.00532 49.9802C1.0121 49.9615 1.02869 49.9251 1.0676 49.8715C1.14925 49.7589 1.30584 49.6025 1.58048 49.4146C2.13364 49.0361 3.01398 48.6316 4.24348 48.2246C6.68903 47.4152 10.2811 46.6709 14.7833 46.0406C23.7729 44.7821 36.2243 44 50 44C63.7757 44 76.2271 44.7821 85.2167 46.0406C89.7189 46.6709 93.311 47.4152 95.7565 48.2246C96.986 48.6316 97.8664 49.0361 98.4195 49.4146C98.6942 49.6025 98.8507 49.7589 98.9324 49.8715C98.9713 49.9251 98.9879 49.9615 98.9947 49.9802C98.998 49.9895 98.9992 49.9951 98.9996 49.9974L99 49.9996L99 49.9999V50Z" stroke="#FBFBFB" stroke-width="2"/>
<line x1="97" y1="50.5" x2="47" y2="50.5" stroke="#FBFBFB"/>
</svg>
