<svg width="75" height="75" viewBox="0 0 75 75" fill="none" xmlns="http://www.w3.org/2000/svg">
<path d="M6.7561 55.25L37.5 2L68.2439 55.25H6.7561Z" stroke="#FBFBFB" stroke-width="2"/>
<path d="M37.5 3V55.5" stroke="#FBFBFB" stroke-width="2"/>
<path d="M39.9631 29.0312V31H39.4602V26.6364H39.9631V28.2386H40.0057C40.0824 28.0696 40.1974 27.9354 40.3509 27.8359C40.5057 27.7351 40.7116 27.6847 40.9688 27.6847C41.1918 27.6847 41.3871 27.7294 41.5547 27.8189C41.7223 27.907 41.8523 28.0426 41.9446 28.2259C42.0384 28.4077 42.0852 28.6392 42.0852 28.9205V31H41.5824V28.9545C41.5824 28.6946 41.5149 28.4936 41.38 28.3516C41.2464 28.2081 41.0611 28.1364 40.8239 28.1364C40.6591 28.1364 40.5114 28.1712 40.3807 28.2408C40.2514 28.3104 40.1491 28.4119 40.0739 28.5455C40 28.679 39.9631 28.8409 39.9631 29.0312Z" fill="#FBFBFB"/>
<path d="M39.9631 29.0312V31H39.4602V26.6364H39.9631V28.2386H40.0057C40.0824 28.0696 40.1974 27.9354 40.3509 27.8359C40.5057 27.7351 40.7116 27.6847 40.9688 27.6847C41.1918 27.6847 41.3871 27.7294 41.5547 27.8189C41.7223 27.907 41.8523 28.0426 41.9446 28.2259C42.0384 28.4077 42.0852 28.6392 42.0852 28.9205V31H41.5824V28.9545C41.5824 28.6946 41.5149 28.4936 41.38 28.3516C41.2464 28.2081 41.0611 28.1364 40.8239 28.1364C40.6591 28.1364 40.5114 28.1712 40.3807 28.2408C40.2514 28.3104 40.1491 28.4119 40.0739 28.5455C40 28.679 39.9631 28.8409 39.9631 29.0312Z" fill="#FBFBFB"/>
<path d="M39.9631 29.0312V31H39.4602V26.6364H39.9631V28.2386H40.0057C40.0824 28.0696 40.1974 27.9354 40.3509 27.8359C40.5057 27.7351 40.7116 27.6847 40.9688 27.6847C41.1918 27.6847 41.3871 27.7294 41.5547 27.8189C41.7223 27.907 41.8523 28.0426 41.9446 28.2259C42.0384 28.4077 42.0852 28.6392 42.0852 28.9205V31H41.5824V28.9545C41.5824 28.6946 41.5149 28.4936 41.38 28.3516C41.2464 28.2081 41.0611 28.1364 40.8239 28.1364C40.6591 28.1364 40.5114 28.1712 40.3807 28.2408C40.2514 28.3104 40.1491 28.4119 40.0739 28.5455C40 28.679 39.9631 28.8409 39.9631 29.0312Z" fill="#FBFBFB"/>
<path d="M36.8352 59.7273L37.6193 61.0653L38.4034 59.7273H38.983L37.9261 61.3636L38.983 63H38.4034L37.6193 61.7301L36.8352 63H36.2557L37.2955 61.3636L36.2557 59.7273H36.8352Z" fill="#FBFBFB"/>
<path d="M36.8352 59.7273L37.6193 61.0653L38.4034 59.7273H38.983L37.9261 61.3636L38.983 63H38.4034L37.6193 61.7301L36.8352 63H36.2557L37.2955 61.3636L36.2557 59.7273H36.8352Z" fill="#FBFBFB"/>
<path d="M36.8352 59.7273L37.6193 61.0653L38.4034 59.7273H38.983L37.9261 61.3636L38.983 63H38.4034L37.6193 61.7301L36.8352 63H36.2557L37.2955 61.3636L36.2557 59.7273H36.8352Z" fill="#FBFBFB"/>
</svg>
