<svg width="40" height="40" viewBox="0 0 40 40" fill="none" xmlns="http://www.w3.org/2000/svg">
<path d="M20 40C17.2333 40 14.6333 39.4747 12.2 38.424C9.76667 37.3747 7.65 35.95 5.85 34.15C4.05 32.35 2.62533 30.2333 1.576 27.8C0.525334 25.3667 0 22.7667 0 20C0 17.2333 0.525334 14.6333 1.576 12.2C2.62533 9.76667 4.05 7.65 5.85 5.85C7.65 4.05 9.76667 2.62467 12.2 1.574C14.6333 0.524667 17.2333 0 20 0C22.7667 0 25.3667 0.524667 27.8 1.574C30.2333 2.62467 32.35 4.05 34.15 5.85C35.95 7.65 37.3747 9.76667 38.424 12.2C39.4747 14.6333 40 17.2333 40 20C40 22.7667 39.4747 25.3667 38.424 27.8C37.3747 30.2333 35.95 32.35 34.15 34.15C32.35 35.95 30.2333 37.3747 27.8 38.424C25.3667 39.4747 22.7667 40 20 40ZM20 36C24.4667 36 28.25 34.45 31.35 31.35C34.45 28.25 36 24.4667 36 20C36 15.5333 34.45 11.75 31.35 8.65C28.25 5.55 24.4667 4 20 4C15.5333 4 11.75 5.55 8.65 8.65C5.55 11.75 4 15.5333 4 20C4 24.4667 5.55 28.25 8.65 31.35C11.75 34.45 15.5333 36 20 36Z" fill="white"/>
<line x1="20" y1="4" x2="20" y2="38" stroke="#FBFBFB" stroke-width="2"/>
<line x1="20" y1="21" x2="37" y2="21" stroke="#FBFBFB" stroke-width="2"/>
<path d="M27.4602 28V24.7273H27.946V25.2216H27.9801C28.0398 25.0597 28.1477 24.9283 28.304 24.8274C28.4602 24.7266 28.6364 24.6761 28.8324 24.6761C28.8693 24.6761 28.9155 24.6768 28.9709 24.6783C29.0263 24.6797 29.0682 24.6818 29.0966 24.6847V25.196C29.0795 25.1918 29.0405 25.1854 28.9794 25.1768C28.9197 25.1669 28.8565 25.1619 28.7898 25.1619C28.6307 25.1619 28.4886 25.1953 28.3636 25.2621C28.2401 25.3274 28.142 25.4183 28.0696 25.5348C27.9986 25.6499 27.9631 25.7812 27.9631 25.929V28H27.4602Z" fill="#FBFBFB"/>
<path d="M18.0682 20.304C18.0682 20.5767 17.9993 20.8175 17.8615 21.0263C17.7223 21.2351 17.5263 21.3984 17.2734 21.5163C17.0192 21.6342 16.7188 21.6932 16.3722 21.6932C16.0284 21.6932 15.7301 21.6342 15.4773 21.5163C15.2244 21.3984 15.0291 21.2344 14.8913 21.0241C14.7536 20.8139 14.6847 20.571 14.6847 20.2955C14.6847 20.0824 14.7202 19.9141 14.7912 19.7905C14.8608 19.6655 14.9403 19.5703 15.0298 19.505C15.1179 19.4382 15.1903 19.3864 15.2472 19.3494V19.3068H13.6364V18.804H18V19.2898H17.4972V19.3494C17.5568 19.3864 17.6321 19.4389 17.723 19.5071C17.8125 19.5753 17.8928 19.6726 17.9638 19.799C18.0334 19.9254 18.0682 20.0937 18.0682 20.304ZM17.6165 20.2358C17.6165 20.0341 17.5639 19.8636 17.4588 19.7244C17.3523 19.5852 17.2053 19.4794 17.0178 19.407C16.8288 19.3345 16.6108 19.2983 16.3636 19.2983C16.1193 19.2983 15.9055 19.3338 15.7223 19.4048C15.5376 19.4759 15.3942 19.581 15.2919 19.7202C15.1882 19.8594 15.1364 20.0312 15.1364 20.2358C15.1364 20.4489 15.1911 20.6264 15.3004 20.7685C15.4084 20.9091 15.5554 21.0149 15.7415 21.0859C15.9261 21.1555 16.1335 21.1903 16.3636 21.1903C16.5966 21.1903 16.8082 21.1548 16.9986 21.0838C17.1875 21.0114 17.3381 20.9048 17.4503 20.7642C17.5611 20.6222 17.6165 20.446 17.6165 20.2358Z" fill="#FBFBFB"/>
</svg>
