<svg width="40" height="40" viewBox="0 0 40 40" fill="none" xmlns="http://www.w3.org/2000/svg">
<path d="M20 40C17.2333 40 14.6333 39.4747 12.2 38.424C9.76667 37.3747 7.65 35.95 5.85 34.15C4.05 32.35 2.62533 30.2333 1.576 27.8C0.525334 25.3667 0 22.7667 0 20C0 17.2333 0.525334 14.6333 1.576 12.2C2.62533 9.76667 4.05 7.65 5.85 5.85C7.65 4.05 9.76667 2.62467 12.2 1.574C14.6333 0.524667 17.2333 0 20 0C22.7667 0 25.3667 0.524667 27.8 1.574C30.2333 2.62467 32.35 4.05 34.15 5.85C35.95 7.65 37.3747 9.76667 38.424 12.2C39.4747 14.6333 40 17.2333 40 20C40 22.7667 39.4747 25.3667 38.424 27.8C37.3747 30.2333 35.95 32.35 34.15 34.15C32.35 35.95 30.2333 37.3747 27.8 38.424C25.3667 39.4747 22.7667 40 20 40ZM20 36C24.4667 36 28.25 34.45 31.35 31.35C34.45 28.25 36 24.4667 36 20C36 15.5333 34.45 11.75 31.35 8.65C28.25 5.55 24.4667 4 20 4C15.5333 4 11.75 5.55 8.65 8.65C5.55 11.75 4 15.5333 4 20C4 24.4667 5.55 28.25 8.65 31.35C11.75 34.45 15.5333 36 20 36Z" fill="white"/>
</svg>
