<svg width="190" height="96" viewBox="0 0 190 96" fill="none" xmlns="http://www.w3.org/2000/svg">
<path d="M145 10H45L43.5 11.5M145 10L146 11.5M145 10L146 85" stroke="#FBFBFB" stroke-width="2"/>
<path d="M139.963 48.0312V50H139.46V45.6364H139.963V47.2386H140.006C140.082 47.0696 140.197 46.9354 140.351 46.8359C140.506 46.7351 140.712 46.6847 140.969 46.6847C141.192 46.6847 141.387 46.7294 141.555 46.8189C141.722 46.907 141.852 47.0426 141.945 47.2259C142.038 47.4077 142.085 47.6392 142.085 47.9205V50H141.582V47.9545C141.582 47.6946 141.515 47.4936 141.38 47.3516C141.246 47.2081 141.061 47.1364 140.824 47.1364C140.659 47.1364 140.511 47.1712 140.381 47.2408C140.251 47.3104 140.149 47.4119 140.074 47.5455C140 47.679 139.963 47.8409 139.963 48.0312Z" fill="#FBFBFB"/>
<path d="M139.963 48.0312V50H139.46V45.6364H139.963V47.2386H140.006C140.082 47.0696 140.197 46.9354 140.351 46.8359C140.506 46.7351 140.712 46.6847 140.969 46.6847C141.192 46.6847 141.387 46.7294 141.555 46.8189C141.722 46.907 141.852 47.0426 141.945 47.2259C142.038 47.4077 142.085 47.6392 142.085 47.9205V50H141.582V47.9545C141.582 47.6946 141.515 47.4936 141.38 47.3516C141.246 47.2081 141.061 47.1364 140.824 47.1364C140.659 47.1364 140.511 47.1712 140.381 47.2408C140.251 47.3104 140.149 47.4119 140.074 47.5455C140 47.679 139.963 47.8409 139.963 48.0312Z" fill="#FBFBFB"/>
<path d="M93.5284 6V1.63636H94.0312V3.24716H94.0739C94.1108 3.19034 94.1619 3.1179 94.2273 3.02983C94.294 2.94034 94.3892 2.8608 94.5128 2.79119C94.6378 2.72017 94.8068 2.68466 95.0199 2.68466C95.2955 2.68466 95.5384 2.75355 95.7486 2.89134C95.9588 3.02912 96.1229 3.22443 96.2408 3.47727C96.3587 3.73011 96.4176 4.02841 96.4176 4.37216C96.4176 4.71875 96.3587 5.01918 96.2408 5.27344C96.1229 5.52628 95.9595 5.7223 95.7507 5.86151C95.5419 5.99929 95.3011 6.06818 95.0284 6.06818C94.8182 6.06818 94.6499 6.03338 94.5234 5.96378C94.397 5.89276 94.2997 5.8125 94.2315 5.72301C94.1634 5.6321 94.1108 5.55682 94.0739 5.49716H94.0142V6H93.5284ZM94.0227 4.36364C94.0227 4.6108 94.0589 4.82884 94.1314 5.01776C94.2038 5.20526 94.3097 5.35227 94.4489 5.45881C94.5881 5.56392 94.7585 5.61648 94.9602 5.61648C95.1705 5.61648 95.3459 5.56108 95.4865 5.45028C95.6286 5.33807 95.7351 5.1875 95.8061 4.99858C95.8786 4.80824 95.9148 4.59659 95.9148 4.36364C95.9148 4.13352 95.8793 3.92614 95.8082 3.74148C95.7386 3.5554 95.6328 3.40838 95.4908 3.30043C95.3501 3.19105 95.1733 3.13636 94.9602 3.13636C94.7557 3.13636 94.5838 3.18821 94.4446 3.2919C94.3054 3.39418 94.2003 3.53764 94.1293 3.7223C94.0582 3.90554 94.0227 4.11932 94.0227 4.36364ZM97.1783 6V5.61648L98.6186 4.03977C98.7876 3.85511 98.9268 3.6946 99.0362 3.55824C99.1456 3.42045 99.2266 3.29119 99.2791 3.17045C99.3331 3.0483 99.3601 2.92045 99.3601 2.78693C99.3601 2.63352 99.3232 2.50071 99.2493 2.38849C99.1768 2.27628 99.0774 2.18963 98.951 2.12855C98.8246 2.06747 98.6825 2.03693 98.5249 2.03693C98.3572 2.03693 98.2109 2.07173 98.0859 2.14134C97.9624 2.20952 97.8665 2.3054 97.7983 2.42898C97.7315 2.55256 97.6982 2.69744 97.6982 2.86364H97.1953C97.1953 2.60795 97.2543 2.38352 97.3722 2.19034C97.4901 1.99716 97.6506 1.84659 97.8537 1.73864C98.0582 1.63068 98.2876 1.5767 98.5419 1.5767C98.7976 1.5767 99.0241 1.63068 99.2216 1.73864C99.419 1.84659 99.5739 1.99219 99.6861 2.17543C99.7983 2.35866 99.8544 2.5625 99.8544 2.78693C99.8544 2.94744 99.8253 3.1044 99.767 3.25781C99.7102 3.4098 99.6108 3.57955 99.4688 3.76705C99.3281 3.95312 99.1328 4.1804 98.8828 4.44886L97.9027 5.49716V5.53125H99.9311V6H97.1783Z" fill="#FBFBFB"/>
<path d="M93.5284 6V1.63636H94.0312V3.24716H94.0739C94.1108 3.19034 94.1619 3.1179 94.2273 3.02983C94.294 2.94034 94.3892 2.8608 94.5128 2.79119C94.6378 2.72017 94.8068 2.68466 95.0199 2.68466C95.2955 2.68466 95.5384 2.75355 95.7486 2.89134C95.9588 3.02912 96.1229 3.22443 96.2408 3.47727C96.3587 3.73011 96.4176 4.02841 96.4176 4.37216C96.4176 4.71875 96.3587 5.01918 96.2408 5.27344C96.1229 5.52628 95.9595 5.7223 95.7507 5.86151C95.5419 5.99929 95.3011 6.06818 95.0284 6.06818C94.8182 6.06818 94.6499 6.03338 94.5234 5.96378C94.397 5.89276 94.2997 5.8125 94.2315 5.72301C94.1634 5.6321 94.1108 5.55682 94.0739 5.49716H94.0142V6H93.5284ZM94.0227 4.36364C94.0227 4.6108 94.0589 4.82884 94.1314 5.01776C94.2038 5.20526 94.3097 5.35227 94.4489 5.45881C94.5881 5.56392 94.7585 5.61648 94.9602 5.61648C95.1705 5.61648 95.3459 5.56108 95.4865 5.45028C95.6286 5.33807 95.7351 5.1875 95.8061 4.99858C95.8786 4.80824 95.9148 4.59659 95.9148 4.36364C95.9148 4.13352 95.8793 3.92614 95.8082 3.74148C95.7386 3.5554 95.6328 3.40838 95.4908 3.30043C95.3501 3.19105 95.1733 3.13636 94.9602 3.13636C94.7557 3.13636 94.5838 3.18821 94.4446 3.2919C94.3054 3.39418 94.2003 3.53764 94.1293 3.7223C94.0582 3.90554 94.0227 4.11932 94.0227 4.36364ZM97.1783 6V5.61648L98.6186 4.03977C98.7876 3.85511 98.9268 3.6946 99.0362 3.55824C99.1456 3.42045 99.2266 3.29119 99.2791 3.17045C99.3331 3.0483 99.3601 2.92045 99.3601 2.78693C99.3601 2.63352 99.3232 2.50071 99.2493 2.38849C99.1768 2.27628 99.0774 2.18963 98.951 2.12855C98.8246 2.06747 98.6825 2.03693 98.5249 2.03693C98.3572 2.03693 98.2109 2.07173 98.0859 2.14134C97.9624 2.20952 97.8665 2.3054 97.7983 2.42898C97.7315 2.55256 97.6982 2.69744 97.6982 2.86364H97.1953C97.1953 2.60795 97.2543 2.38352 97.3722 2.19034C97.4901 1.99716 97.6506 1.84659 97.8537 1.73864C98.0582 1.63068 98.2876 1.5767 98.5419 1.5767C98.7976 1.5767 99.0241 1.63068 99.2216 1.73864C99.419 1.84659 99.5739 1.99219 99.6861 2.17543C99.7983 2.35866 99.8544 2.5625 99.8544 2.78693C99.8544 2.94744 99.8253 3.1044 99.767 3.25781C99.7102 3.4098 99.6108 3.57955 99.4688 3.76705C99.3281 3.95312 99.1328 4.1804 98.8828 4.44886L97.9027 5.49716V5.53125H99.9311V6H97.1783Z" fill="#FBFBFB"/>
<path d="M93.5284 95V90.6364H94.0312V92.2472H94.0739C94.1108 92.1903 94.1619 92.1179 94.2273 92.0298C94.294 91.9403 94.3892 91.8608 94.5128 91.7912C94.6378 91.7202 94.8068 91.6847 95.0199 91.6847C95.2955 91.6847 95.5384 91.7536 95.7486 91.8913C95.9588 92.0291 96.1229 92.2244 96.2408 92.4773C96.3587 92.7301 96.4176 93.0284 96.4176 93.3722C96.4176 93.7188 96.3587 94.0192 96.2408 94.2734C96.1229 94.5263 95.9595 94.7223 95.7507 94.8615C95.5419 94.9993 95.3011 95.0682 95.0284 95.0682C94.8182 95.0682 94.6499 95.0334 94.5234 94.9638C94.397 94.8928 94.2997 94.8125 94.2315 94.723C94.1634 94.6321 94.1108 94.5568 94.0739 94.4972H94.0142V95H93.5284ZM94.0227 93.3636C94.0227 93.6108 94.0589 93.8288 94.1314 94.0178C94.2038 94.2053 94.3097 94.3523 94.4489 94.4588C94.5881 94.5639 94.7585 94.6165 94.9602 94.6165C95.1705 94.6165 95.3459 94.5611 95.4865 94.4503C95.6286 94.3381 95.7351 94.1875 95.8061 93.9986C95.8786 93.8082 95.9148 93.5966 95.9148 93.3636C95.9148 93.1335 95.8793 92.9261 95.8082 92.7415C95.7386 92.5554 95.6328 92.4084 95.4908 92.3004C95.3501 92.1911 95.1733 92.1364 94.9602 92.1364C94.7557 92.1364 94.5838 92.1882 94.4446 92.2919C94.3054 92.3942 94.2003 92.5376 94.1293 92.7223C94.0582 92.9055 94.0227 93.1193 94.0227 93.3636ZM98.7124 90.6364V95H98.1839V91.1903H98.1584L97.093 91.8977V91.3608L98.1839 90.6364H98.7124Z" fill="#FBFBFB"/>
<path d="M93.5284 95V90.6364H94.0312V92.2472H94.0739C94.1108 92.1903 94.1619 92.1179 94.2273 92.0298C94.294 91.9403 94.3892 91.8608 94.5128 91.7912C94.6378 91.7202 94.8068 91.6847 95.0199 91.6847C95.2955 91.6847 95.5384 91.7536 95.7486 91.8913C95.9588 92.0291 96.1229 92.2244 96.2408 92.4773C96.3587 92.7301 96.4176 93.0284 96.4176 93.3722C96.4176 93.7188 96.3587 94.0192 96.2408 94.2734C96.1229 94.5263 95.9595 94.7223 95.7507 94.8615C95.5419 94.9993 95.3011 95.0682 95.0284 95.0682C94.8182 95.0682 94.6499 95.0334 94.5234 94.9638C94.397 94.8928 94.2997 94.8125 94.2315 94.723C94.1634 94.6321 94.1108 94.5568 94.0739 94.4972H94.0142V95H93.5284ZM94.0227 93.3636C94.0227 93.6108 94.0589 93.8288 94.1314 94.0178C94.2038 94.2053 94.3097 94.3523 94.4489 94.4588C94.5881 94.5639 94.7585 94.6165 94.9602 94.6165C95.1705 94.6165 95.3459 94.5611 95.4865 94.4503C95.6286 94.3381 95.7351 94.1875 95.8061 93.9986C95.8786 93.8082 95.9148 93.5966 95.9148 93.3636C95.9148 93.1335 95.8793 92.9261 95.8082 92.7415C95.7386 92.5554 95.6328 92.4084 95.4908 92.3004C95.3501 92.1911 95.1733 92.1364 94.9602 92.1364C94.7557 92.1364 94.5838 92.1882 94.4446 92.2919C94.3054 92.3942 94.2003 92.5376 94.1293 92.7223C94.0582 92.9055 94.0227 93.1193 94.0227 93.3636ZM98.7124 90.6364V95H98.1839V91.1903H98.1584L97.093 91.8977V91.3608L98.1839 90.6364H98.7124Z" fill="#FBFBFB"/>
<line x1="2" y1="85" x2="188" y2="85" stroke="#FBFBFB" stroke-width="2"/>
<line x1="145.868" y1="10.5026" x2="188.868" y2="85.5026" stroke="#FBFBFB" stroke-width="2"/>
<line y1="-1" x2="86.4517" y2="-1" transform="matrix(-0.497373 0.867537 0.867524 0.497395 45.3 11)" stroke="#FBFBFB" stroke-width="2"/>
</svg>
