<svg width="50" height="75" viewBox="0 0 50 75" fill="none" xmlns="http://www.w3.org/2000/svg">
<path d="M4.80578 55.25L25 2.78388L45.1942 55.25H4.80578Z" stroke="#FBFBFB" stroke-width="2"/>
<path d="M25 4V55.5" stroke="#FBFBFB" stroke-width="2"/>
<path d="M27.9631 30.0312V32H27.4602V27.6364H27.9631V29.2386H28.0057C28.0824 29.0696 28.1974 28.9354 28.3509 28.8359C28.5057 28.7351 28.7116 28.6847 28.9688 28.6847C29.1918 28.6847 29.3871 28.7294 29.5547 28.8189C29.7223 28.907 29.8523 29.0426 29.9446 29.2259C30.0384 29.4077 30.0852 29.6392 30.0852 29.9205V32H29.5824V29.9545C29.5824 29.6946 29.5149 29.4936 29.38 29.3516C29.2464 29.2081 29.0611 29.1364 28.8239 29.1364C28.6591 29.1364 28.5114 29.1712 28.3807 29.2408C28.2514 29.3104 28.1491 29.4119 28.0739 29.5455C28 29.679 27.9631 29.8409 27.9631 30.0312Z" fill="#FBFBFB"/>
<path d="M27.9631 30.0312V32H27.4602V27.6364H27.9631V29.2386H28.0057C28.0824 29.0696 28.1974 28.9354 28.3509 28.8359C28.5057 28.7351 28.7116 28.6847 28.9688 28.6847C29.1918 28.6847 29.3871 28.7294 29.5547 28.8189C29.7223 28.907 29.8523 29.0426 29.9446 29.2259C30.0384 29.4077 30.0852 29.6392 30.0852 29.9205V32H29.5824V29.9545C29.5824 29.6946 29.5149 29.4936 29.38 29.3516C29.2464 29.2081 29.0611 29.1364 28.8239 29.1364C28.6591 29.1364 28.5114 29.1712 28.3807 29.2408C28.2514 29.3104 28.1491 29.4119 28.0739 29.5455C28 29.679 27.9631 29.8409 27.9631 30.0312Z" fill="#FBFBFB"/>
<path d="M27.9631 30.0312V32H27.4602V27.6364H27.9631V29.2386H28.0057C28.0824 29.0696 28.1974 28.9354 28.3509 28.8359C28.5057 28.7351 28.7116 28.6847 28.9688 28.6847C29.1918 28.6847 29.3871 28.7294 29.5547 28.8189C29.7223 28.907 29.8523 29.0426 29.9446 29.2259C30.0384 29.4077 30.0852 29.6392 30.0852 29.9205V32H29.5824V29.9545C29.5824 29.6946 29.5149 29.4936 29.38 29.3516C29.2464 29.2081 29.0611 29.1364 28.8239 29.1364C28.6591 29.1364 28.5114 29.1712 28.3807 29.2408C28.2514 29.3104 28.1491 29.4119 28.0739 29.5455C28 29.679 27.9631 29.8409 27.9631 30.0312Z" fill="#FBFBFB"/>
<path d="M40.4233 32.0767C40.2159 32.0767 40.0277 32.0376 39.8587 31.9595C39.6896 31.88 39.5554 31.7656 39.456 31.6165C39.3565 31.4659 39.3068 31.2841 39.3068 31.071C39.3068 30.8835 39.3438 30.7315 39.4176 30.6151C39.4915 30.4972 39.5902 30.4048 39.7138 30.3381C39.8374 30.2713 39.9737 30.2216 40.1229 30.1889C40.2734 30.1548 40.4247 30.1278 40.5767 30.108C40.7756 30.0824 40.9368 30.0632 41.0604 30.0504C41.1854 30.0362 41.2763 30.0128 41.3331 29.9801C41.3913 29.9474 41.4205 29.8906 41.4205 29.8097V29.7926C41.4205 29.5824 41.3629 29.419 41.2479 29.3026C41.1342 29.1861 40.9616 29.1278 40.7301 29.1278C40.4901 29.1278 40.3018 29.1804 40.1655 29.2855C40.0291 29.3906 39.9332 29.5028 39.8778 29.6222L39.4006 29.4517C39.4858 29.2528 39.5994 29.098 39.7415 28.9872C39.8849 28.875 40.0412 28.7969 40.2102 28.7528C40.3807 28.7074 40.5483 28.6847 40.7131 28.6847C40.8182 28.6847 40.9389 28.6974 41.0753 28.723C41.2131 28.7472 41.3459 28.7976 41.4737 28.8743C41.603 28.951 41.7102 29.0668 41.7955 29.2216C41.8807 29.3764 41.9233 29.5838 41.9233 29.8438V32H41.4205V31.5568H41.3949C41.3608 31.6278 41.304 31.7038 41.2244 31.7848C41.1449 31.8658 41.0391 31.9347 40.907 31.9915C40.7749 32.0483 40.6136 32.0767 40.4233 32.0767ZM40.5 31.625C40.6989 31.625 40.8665 31.5859 41.0028 31.5078C41.1406 31.4297 41.2443 31.3288 41.3139 31.2053C41.3849 31.0817 41.4205 30.9517 41.4205 30.8153V30.3551C41.3991 30.3807 41.3523 30.4041 41.2798 30.4254C41.2088 30.4453 41.1264 30.4631 41.0327 30.4787C40.9403 30.4929 40.8501 30.5057 40.7621 30.517C40.6754 30.527 40.6051 30.5355 40.5511 30.5426C40.4205 30.5597 40.2983 30.5874 40.1847 30.6257C40.0724 30.6626 39.9815 30.7187 39.9119 30.794C39.8438 30.8679 39.8097 30.9687 39.8097 31.0966C39.8097 31.2713 39.8743 31.4034 40.0036 31.4929C40.1342 31.581 40.2997 31.625 40.5 31.625Z" fill="#FBFBFB"/>
<path d="M40.4233 32.0767C40.2159 32.0767 40.0277 32.0376 39.8587 31.9595C39.6896 31.88 39.5554 31.7656 39.456 31.6165C39.3565 31.4659 39.3068 31.2841 39.3068 31.071C39.3068 30.8835 39.3438 30.7315 39.4176 30.6151C39.4915 30.4972 39.5902 30.4048 39.7138 30.3381C39.8374 30.2713 39.9737 30.2216 40.1229 30.1889C40.2734 30.1548 40.4247 30.1278 40.5767 30.108C40.7756 30.0824 40.9368 30.0632 41.0604 30.0504C41.1854 30.0362 41.2763 30.0128 41.3331 29.9801C41.3913 29.9474 41.4205 29.8906 41.4205 29.8097V29.7926C41.4205 29.5824 41.3629 29.419 41.2479 29.3026C41.1342 29.1861 40.9616 29.1278 40.7301 29.1278C40.4901 29.1278 40.3018 29.1804 40.1655 29.2855C40.0291 29.3906 39.9332 29.5028 39.8778 29.6222L39.4006 29.4517C39.4858 29.2528 39.5994 29.098 39.7415 28.9872C39.8849 28.875 40.0412 28.7969 40.2102 28.7528C40.3807 28.7074 40.5483 28.6847 40.7131 28.6847C40.8182 28.6847 40.9389 28.6974 41.0753 28.723C41.2131 28.7472 41.3459 28.7976 41.4737 28.8743C41.603 28.951 41.7102 29.0668 41.7955 29.2216C41.8807 29.3764 41.9233 29.5838 41.9233 29.8438V32H41.4205V31.5568H41.3949C41.3608 31.6278 41.304 31.7038 41.2244 31.7848C41.1449 31.8658 41.0391 31.9347 40.907 31.9915C40.7749 32.0483 40.6136 32.0767 40.4233 32.0767ZM40.5 31.625C40.6989 31.625 40.8665 31.5859 41.0028 31.5078C41.1406 31.4297 41.2443 31.3288 41.3139 31.2053C41.3849 31.0817 41.4205 30.9517 41.4205 30.8153V30.3551C41.3991 30.3807 41.3523 30.4041 41.2798 30.4254C41.2088 30.4453 41.1264 30.4631 41.0327 30.4787C40.9403 30.4929 40.8501 30.5057 40.7621 30.517C40.6754 30.527 40.6051 30.5355 40.5511 30.5426C40.4205 30.5597 40.2983 30.5874 40.1847 30.6257C40.0724 30.6626 39.9815 30.7187 39.9119 30.794C39.8438 30.8679 39.8097 30.9687 39.8097 31.0966C39.8097 31.2713 39.8743 31.4034 40.0036 31.4929C40.1342 31.581 40.2997 31.625 40.5 31.625Z" fill="#FBFBFB"/>
<path d="M40.4233 32.0767C40.2159 32.0767 40.0277 32.0376 39.8587 31.9595C39.6896 31.88 39.5554 31.7656 39.456 31.6165C39.3565 31.4659 39.3068 31.2841 39.3068 31.071C39.3068 30.8835 39.3438 30.7315 39.4176 30.6151C39.4915 30.4972 39.5902 30.4048 39.7138 30.3381C39.8374 30.2713 39.9737 30.2216 40.1229 30.1889C40.2734 30.1548 40.4247 30.1278 40.5767 30.108C40.7756 30.0824 40.9368 30.0632 41.0604 30.0504C41.1854 30.0362 41.2763 30.0128 41.3331 29.9801C41.3913 29.9474 41.4205 29.8906 41.4205 29.8097V29.7926C41.4205 29.5824 41.3629 29.419 41.2479 29.3026C41.1342 29.1861 40.9616 29.1278 40.7301 29.1278C40.4901 29.1278 40.3018 29.1804 40.1655 29.2855C40.0291 29.3906 39.9332 29.5028 39.8778 29.6222L39.4006 29.4517C39.4858 29.2528 39.5994 29.098 39.7415 28.9872C39.8849 28.875 40.0412 28.7969 40.2102 28.7528C40.3807 28.7074 40.5483 28.6847 40.7131 28.6847C40.8182 28.6847 40.9389 28.6974 41.0753 28.723C41.2131 28.7472 41.3459 28.7976 41.4737 28.8743C41.603 28.951 41.7102 29.0668 41.7955 29.2216C41.8807 29.3764 41.9233 29.5838 41.9233 29.8438V32H41.4205V31.5568H41.3949C41.3608 31.6278 41.304 31.7038 41.2244 31.7848C41.1449 31.8658 41.0391 31.9347 40.907 31.9915C40.7749 32.0483 40.6136 32.0767 40.4233 32.0767ZM40.5 31.625C40.6989 31.625 40.8665 31.5859 41.0028 31.5078C41.1406 31.4297 41.2443 31.3288 41.3139 31.2053C41.3849 31.0817 41.4205 30.9517 41.4205 30.8153V30.3551C41.3991 30.3807 41.3523 30.4041 41.2798 30.4254C41.2088 30.4453 41.1264 30.4631 41.0327 30.4787C40.9403 30.4929 40.8501 30.5057 40.7621 30.517C40.6754 30.527 40.6051 30.5355 40.5511 30.5426C40.4205 30.5597 40.2983 30.5874 40.1847 30.6257C40.0724 30.6626 39.9815 30.7187 39.9119 30.794C39.8438 30.8679 39.8097 30.9687 39.8097 31.0966C39.8097 31.2713 39.8743 31.4034 40.0036 31.4929C40.1342 31.581 40.2997 31.625 40.5 31.625Z" fill="#FBFBFB"/>
<path d="M8.4233 32.0767C8.21591 32.0767 8.0277 32.0376 7.85866 31.9595C7.68963 31.88 7.5554 31.7656 7.45597 31.6165C7.35653 31.4659 7.30682 31.2841 7.30682 31.071C7.30682 30.8835 7.34375 30.7315 7.41761 30.6151C7.49148 30.4972 7.5902 30.4048 7.71378 30.3381C7.83736 30.2713 7.97372 30.2216 8.12287 30.1889C8.27344 30.1548 8.42472 30.1278 8.5767 30.108C8.77557 30.0824 8.93679 30.0632 9.06037 30.0504C9.18537 30.0362 9.27628 30.0128 9.3331 29.9801C9.39134 29.9474 9.42045 29.8906 9.42045 29.8097V29.7926C9.42045 29.5824 9.36293 29.419 9.24787 29.3026C9.13423 29.1861 8.96165 29.1278 8.73011 29.1278C8.49006 29.1278 8.30185 29.1804 8.16548 29.2855C8.02912 29.3906 7.93324 29.5028 7.87784 29.6222L7.40057 29.4517C7.4858 29.2528 7.59943 29.098 7.74148 28.9872C7.88494 28.875 8.04119 28.7969 8.21023 28.7528C8.38068 28.7074 8.5483 28.6847 8.71307 28.6847C8.81818 28.6847 8.93892 28.6974 9.07528 28.723C9.21307 28.7472 9.34588 28.7976 9.47372 28.8743C9.60298 28.951 9.71023 29.0668 9.79545 29.2216C9.88068 29.3764 9.9233 29.5838 9.9233 29.8438V32H9.42045V31.5568H9.39489C9.3608 31.6278 9.30398 31.7038 9.22443 31.7848C9.14489 31.8658 9.03906 31.9347 8.90696 31.9915C8.77486 32.0483 8.61364 32.0767 8.4233 32.0767ZM8.5 31.625C8.69886 31.625 8.86648 31.5859 9.00284 31.5078C9.14063 31.4297 9.24432 31.3288 9.31392 31.2053C9.38494 31.0817 9.42045 30.9517 9.42045 30.8153V30.3551C9.39915 30.3807 9.35227 30.4041 9.27983 30.4254C9.20881 30.4453 9.12642 30.4631 9.03267 30.4787C8.94034 30.4929 8.85014 30.5057 8.76207 30.517C8.67543 30.527 8.60511 30.5355 8.55114 30.5426C8.42045 30.5597 8.2983 30.5874 8.18466 30.6257C8.07244 30.6626 7.98153 30.7187 7.91193 30.794C7.84375 30.8679 7.80966 30.9687 7.80966 31.0966C7.80966 31.2713 7.87429 31.4034 8.00355 31.4929C8.13423 31.581 8.29972 31.625 8.5 31.625Z" fill="#FBFBFB"/>
<path d="M8.4233 32.0767C8.21591 32.0767 8.0277 32.0376 7.85866 31.9595C7.68963 31.88 7.5554 31.7656 7.45597 31.6165C7.35653 31.4659 7.30682 31.2841 7.30682 31.071C7.30682 30.8835 7.34375 30.7315 7.41761 30.6151C7.49148 30.4972 7.5902 30.4048 7.71378 30.3381C7.83736 30.2713 7.97372 30.2216 8.12287 30.1889C8.27344 30.1548 8.42472 30.1278 8.5767 30.108C8.77557 30.0824 8.93679 30.0632 9.06037 30.0504C9.18537 30.0362 9.27628 30.0128 9.3331 29.9801C9.39134 29.9474 9.42045 29.8906 9.42045 29.8097V29.7926C9.42045 29.5824 9.36293 29.419 9.24787 29.3026C9.13423 29.1861 8.96165 29.1278 8.73011 29.1278C8.49006 29.1278 8.30185 29.1804 8.16548 29.2855C8.02912 29.3906 7.93324 29.5028 7.87784 29.6222L7.40057 29.4517C7.4858 29.2528 7.59943 29.098 7.74148 28.9872C7.88494 28.875 8.04119 28.7969 8.21023 28.7528C8.38068 28.7074 8.5483 28.6847 8.71307 28.6847C8.81818 28.6847 8.93892 28.6974 9.07528 28.723C9.21307 28.7472 9.34588 28.7976 9.47372 28.8743C9.60298 28.951 9.71023 29.0668 9.79545 29.2216C9.88068 29.3764 9.9233 29.5838 9.9233 29.8438V32H9.42045V31.5568H9.39489C9.3608 31.6278 9.30398 31.7038 9.22443 31.7848C9.14489 31.8658 9.03906 31.9347 8.90696 31.9915C8.77486 32.0483 8.61364 32.0767 8.4233 32.0767ZM8.5 31.625C8.69886 31.625 8.86648 31.5859 9.00284 31.5078C9.14063 31.4297 9.24432 31.3288 9.31392 31.2053C9.38494 31.0817 9.42045 30.9517 9.42045 30.8153V30.3551C9.39915 30.3807 9.35227 30.4041 9.27983 30.4254C9.20881 30.4453 9.12642 30.4631 9.03267 30.4787C8.94034 30.4929 8.85014 30.5057 8.76207 30.517C8.67543 30.527 8.60511 30.5355 8.55114 30.5426C8.42045 30.5597 8.2983 30.5874 8.18466 30.6257C8.07244 30.6626 7.98153 30.7187 7.91193 30.794C7.84375 30.8679 7.80966 30.9687 7.80966 31.0966C7.80966 31.2713 7.87429 31.4034 8.00355 31.4929C8.13423 31.581 8.29972 31.625 8.5 31.625Z" fill="#FBFBFB"/>
<path d="M8.4233 32.0767C8.21591 32.0767 8.0277 32.0376 7.85866 31.9595C7.68963 31.88 7.5554 31.7656 7.45597 31.6165C7.35653 31.4659 7.30682 31.2841 7.30682 31.071C7.30682 30.8835 7.34375 30.7315 7.41761 30.6151C7.49148 30.4972 7.5902 30.4048 7.71378 30.3381C7.83736 30.2713 7.97372 30.2216 8.12287 30.1889C8.27344 30.1548 8.42472 30.1278 8.5767 30.108C8.77557 30.0824 8.93679 30.0632 9.06037 30.0504C9.18537 30.0362 9.27628 30.0128 9.3331 29.9801C9.39134 29.9474 9.42045 29.8906 9.42045 29.8097V29.7926C9.42045 29.5824 9.36293 29.419 9.24787 29.3026C9.13423 29.1861 8.96165 29.1278 8.73011 29.1278C8.49006 29.1278 8.30185 29.1804 8.16548 29.2855C8.02912 29.3906 7.93324 29.5028 7.87784 29.6222L7.40057 29.4517C7.4858 29.2528 7.59943 29.098 7.74148 28.9872C7.88494 28.875 8.04119 28.7969 8.21023 28.7528C8.38068 28.7074 8.5483 28.6847 8.71307 28.6847C8.81818 28.6847 8.93892 28.6974 9.07528 28.723C9.21307 28.7472 9.34588 28.7976 9.47372 28.8743C9.60298 28.951 9.71023 29.0668 9.79545 29.2216C9.88068 29.3764 9.9233 29.5838 9.9233 29.8438V32H9.42045V31.5568H9.39489C9.3608 31.6278 9.30398 31.7038 9.22443 31.7848C9.14489 31.8658 9.03906 31.9347 8.90696 31.9915C8.77486 32.0483 8.61364 32.0767 8.4233 32.0767ZM8.5 31.625C8.69886 31.625 8.86648 31.5859 9.00284 31.5078C9.14063 31.4297 9.24432 31.3288 9.31392 31.2053C9.38494 31.0817 9.42045 30.9517 9.42045 30.8153V30.3551C9.39915 30.3807 9.35227 30.4041 9.27983 30.4254C9.20881 30.4453 9.12642 30.4631 9.03267 30.4787C8.94034 30.4929 8.85014 30.5057 8.76207 30.517C8.67543 30.527 8.60511 30.5355 8.55114 30.5426C8.42045 30.5597 8.2983 30.5874 8.18466 30.6257C8.07244 30.6626 7.98153 30.7187 7.91193 30.794C7.84375 30.8679 7.80966 30.9687 7.80966 31.0966C7.80966 31.2713 7.87429 31.4034 8.00355 31.4929C8.13423 31.581 8.29972 31.625 8.5 31.625Z" fill="#FBFBFB"/>
<path d="M23.5284 62V57.6364H24.0312V59.2472H24.0739C24.1108 59.1903 24.1619 59.1179 24.2273 59.0298C24.294 58.9403 24.3892 58.8608 24.5128 58.7912C24.6378 58.7202 24.8068 58.6847 25.0199 58.6847C25.2955 58.6847 25.5384 58.7536 25.7486 58.8913C25.9588 59.0291 26.1229 59.2244 26.2408 59.4773C26.3587 59.7301 26.4176 60.0284 26.4176 60.3722C26.4176 60.7188 26.3587 61.0192 26.2408 61.2734C26.1229 61.5263 25.9595 61.7223 25.7507 61.8615C25.5419 61.9993 25.3011 62.0682 25.0284 62.0682C24.8182 62.0682 24.6499 62.0334 24.5234 61.9638C24.397 61.8928 24.2997 61.8125 24.2315 61.723C24.1634 61.6321 24.1108 61.5568 24.0739 61.4972H24.0142V62H23.5284ZM24.0227 60.3636C24.0227 60.6108 24.0589 60.8288 24.1314 61.0178C24.2038 61.2053 24.3097 61.3523 24.4489 61.4588C24.5881 61.5639 24.7585 61.6165 24.9602 61.6165C25.1705 61.6165 25.3459 61.5611 25.4865 61.4503C25.6286 61.3381 25.7351 61.1875 25.8061 60.9986C25.8786 60.8082 25.9148 60.5966 25.9148 60.3636C25.9148 60.1335 25.8793 59.9261 25.8082 59.7415C25.7386 59.5554 25.6328 59.4084 25.4908 59.3004C25.3501 59.1911 25.1733 59.1364 24.9602 59.1364C24.7557 59.1364 24.5838 59.1882 24.4446 59.2919C24.3054 59.3942 24.2003 59.5376 24.1293 59.7223C24.0582 59.9055 24.0227 60.1193 24.0227 60.3636Z" fill="#FBFBFB"/>
<path d="M23.5284 62V57.6364H24.0312V59.2472H24.0739C24.1108 59.1903 24.1619 59.1179 24.2273 59.0298C24.294 58.9403 24.3892 58.8608 24.5128 58.7912C24.6378 58.7202 24.8068 58.6847 25.0199 58.6847C25.2955 58.6847 25.5384 58.7536 25.7486 58.8913C25.9588 59.0291 26.1229 59.2244 26.2408 59.4773C26.3587 59.7301 26.4176 60.0284 26.4176 60.3722C26.4176 60.7188 26.3587 61.0192 26.2408 61.2734C26.1229 61.5263 25.9595 61.7223 25.7507 61.8615C25.5419 61.9993 25.3011 62.0682 25.0284 62.0682C24.8182 62.0682 24.6499 62.0334 24.5234 61.9638C24.397 61.8928 24.2997 61.8125 24.2315 61.723C24.1634 61.6321 24.1108 61.5568 24.0739 61.4972H24.0142V62H23.5284ZM24.0227 60.3636C24.0227 60.6108 24.0589 60.8288 24.1314 61.0178C24.2038 61.2053 24.3097 61.3523 24.4489 61.4588C24.5881 61.5639 24.7585 61.6165 24.9602 61.6165C25.1705 61.6165 25.3459 61.5611 25.4865 61.4503C25.6286 61.3381 25.7351 61.1875 25.8061 60.9986C25.8786 60.8082 25.9148 60.5966 25.9148 60.3636C25.9148 60.1335 25.8793 59.9261 25.8082 59.7415C25.7386 59.5554 25.6328 59.4084 25.4908 59.3004C25.3501 59.1911 25.1733 59.1364 24.9602 59.1364C24.7557 59.1364 24.5838 59.1882 24.4446 59.2919C24.3054 59.3942 24.2003 59.5376 24.1293 59.7223C24.0582 59.9055 24.0227 60.1193 24.0227 60.3636Z" fill="#FBFBFB"/>
<path d="M23.5284 62V57.6364H24.0312V59.2472H24.0739C24.1108 59.1903 24.1619 59.1179 24.2273 59.0298C24.294 58.9403 24.3892 58.8608 24.5128 58.7912C24.6378 58.7202 24.8068 58.6847 25.0199 58.6847C25.2955 58.6847 25.5384 58.7536 25.7486 58.8913C25.9588 59.0291 26.1229 59.2244 26.2408 59.4773C26.3587 59.7301 26.4176 60.0284 26.4176 60.3722C26.4176 60.7188 26.3587 61.0192 26.2408 61.2734C26.1229 61.5263 25.9595 61.7223 25.7507 61.8615C25.5419 61.9993 25.3011 62.0682 25.0284 62.0682C24.8182 62.0682 24.6499 62.0334 24.5234 61.9638C24.397 61.8928 24.2997 61.8125 24.2315 61.723C24.1634 61.6321 24.1108 61.5568 24.0739 61.4972H24.0142V62H23.5284ZM24.0227 60.3636C24.0227 60.6108 24.0589 60.8288 24.1314 61.0178C24.2038 61.2053 24.3097 61.3523 24.4489 61.4588C24.5881 61.5639 24.7585 61.6165 24.9602 61.6165C25.1705 61.6165 25.3459 61.5611 25.4865 61.4503C25.6286 61.3381 25.7351 61.1875 25.8061 60.9986C25.8786 60.8082 25.9148 60.5966 25.9148 60.3636C25.9148 60.1335 25.8793 59.9261 25.8082 59.7415C25.7386 59.5554 25.6328 59.4084 25.4908 59.3004C25.3501 59.1911 25.1733 59.1364 24.9602 59.1364C24.7557 59.1364 24.5838 59.1882 24.4446 59.2919C24.3054 59.3942 24.2003 59.5376 24.1293 59.7223C24.0582 59.9055 24.0227 60.1193 24.0227 60.3636Z" fill="#FBFBFB"/>
</svg>
