<svg width="59" height="12" viewBox="0 0 59 12" fill="none" xmlns="http://www.w3.org/2000/svg">
<path d="M0.903409 9V8.23295L3.78409 5.07955C4.12216 4.71023 4.40057 4.3892 4.61932 4.11648C4.83807 3.84091 5 3.58239 5.10511 3.34091C5.21307 3.09659 5.26705 2.84091 5.26705 2.57386C5.26705 2.26705 5.19318 2.00142 5.04545 1.77699C4.90057 1.55256 4.7017 1.37926 4.44886 1.2571C4.19602 1.13494 3.91193 1.07386 3.59659 1.07386C3.26136 1.07386 2.96875 1.14347 2.71875 1.28267C2.47159 1.41903 2.27983 1.6108 2.14347 1.85795C2.00994 2.10511 1.94318 2.39489 1.94318 2.72727H0.9375C0.9375 2.21591 1.0554 1.76705 1.29119 1.38068C1.52699 0.994318 1.84801 0.693181 2.25426 0.477272C2.66335 0.261363 3.12216 0.153409 3.63068 0.153409C4.14205 0.153409 4.59517 0.261363 4.99006 0.477272C5.38494 0.693181 5.6946 0.984375 5.91903 1.35085C6.14347 1.71733 6.25568 2.125 6.25568 2.57386C6.25568 2.89489 6.19744 3.20881 6.08097 3.51562C5.96733 3.8196 5.76847 4.15909 5.48438 4.53409C5.20312 4.90625 4.8125 5.3608 4.3125 5.89773L2.35227 7.99432V8.0625H6.40909V9H0.903409ZM9.68608 7.80682L9.6179 8.26705C9.5696 8.59091 9.49574 8.9375 9.39631 9.30682C9.29972 9.67614 9.19886 10.0241 9.09375 10.3509C8.98864 10.6776 8.90199 10.9375 8.83381 11.1307H8.06676C8.10369 10.9489 8.15199 10.7088 8.21165 10.4105C8.27131 10.1122 8.33097 9.77841 8.39062 9.40909C8.45312 9.04261 8.50426 8.66761 8.54403 8.28409L8.59517 7.80682H9.68608ZM14.7028 7.21023V6.34091L18.538 0.272727H19.1687V1.61932H18.7425L15.8448 6.20455V6.27273H21.0096V7.21023H14.7028ZM18.8107 9V6.94602V6.54119V0.272727H19.8164V9H18.8107ZM23.7134 7.80682L23.6452 8.26705C23.5969 8.59091 23.5231 8.9375 23.4237 9.30682C23.3271 9.67614 23.2262 10.0241 23.1211 10.3509C23.016 10.6776 22.9293 10.9375 22.8612 11.1307H22.0941C22.131 10.9489 22.1793 10.7088 22.239 10.4105C22.2987 10.1122 22.3583 9.77841 22.418 9.40909C22.4805 9.04261 22.5316 8.66761 22.5714 8.28409L22.6225 7.80682H23.7134ZM31.8324 9.11932C31.4744 9.11364 31.1165 9.04545 30.7585 8.91477C30.4006 8.78409 30.0739 8.56392 29.7784 8.25426C29.483 7.94176 29.2457 7.51989 29.0668 6.98864C28.8878 6.45455 28.7983 5.78409 28.7983 4.97727C28.7983 4.20455 28.8707 3.51989 29.0156 2.9233C29.1605 2.32386 29.3707 1.8196 29.6463 1.41051C29.9219 0.99858 30.2543 0.686079 30.6435 0.473011C31.0355 0.259943 31.4773 0.153409 31.9688 0.153409C32.4574 0.153409 32.892 0.25142 33.2727 0.447443C33.6563 0.640625 33.9688 0.910511 34.2102 1.2571C34.4517 1.60369 34.608 2.00284 34.679 2.45455H33.6392C33.5426 2.0625 33.3551 1.73722 33.0767 1.47869C32.7983 1.22017 32.429 1.09091 31.9688 1.09091C31.2926 1.09091 30.7599 1.38494 30.3707 1.97301C29.9844 2.56108 29.7898 3.38636 29.7869 4.44886H29.8551C30.0142 4.20739 30.2031 4.00142 30.4219 3.83097C30.6435 3.65767 30.8878 3.52415 31.1548 3.4304C31.4219 3.33665 31.7045 3.28977 32.0028 3.28977C32.5028 3.28977 32.9602 3.41477 33.375 3.66477C33.7898 3.91193 34.1222 4.25426 34.3722 4.69176C34.6222 5.12642 34.7472 5.625 34.7472 6.1875C34.7472 6.72727 34.6264 7.22159 34.3849 7.67045C34.1435 8.11648 33.804 8.47159 33.3665 8.7358C32.9318 8.99716 32.4205 9.125 31.8324 9.11932ZM31.8324 8.18182C32.1903 8.18182 32.5114 8.09233 32.7955 7.91335C33.0824 7.73437 33.3082 7.49432 33.473 7.19318C33.6406 6.89205 33.7244 6.55682 33.7244 6.1875C33.7244 5.8267 33.6435 5.49858 33.4815 5.20312C33.3224 4.90483 33.1023 4.66761 32.821 4.49148C32.5426 4.31534 32.2244 4.22727 31.8665 4.22727C31.5966 4.22727 31.3452 4.28125 31.1122 4.3892C30.8793 4.49432 30.6747 4.6392 30.4986 4.82386C30.3253 5.00852 30.1889 5.22017 30.0895 5.45881C29.9901 5.6946 29.9403 5.94318 29.9403 6.20455C29.9403 6.55114 30.0213 6.875 30.1832 7.17614C30.348 7.47727 30.5724 7.72017 30.8565 7.90483C31.1435 8.08949 31.4688 8.18182 31.8324 8.18182ZM37.5298 7.80682L37.4616 8.26705C37.4134 8.59091 37.3395 8.9375 37.2401 9.30682C37.1435 9.67614 37.0426 10.0241 36.9375 10.3509C36.8324 10.6776 36.7457 10.9375 36.6776 11.1307H35.9105C35.9474 10.9489 35.9957 10.7088 36.0554 10.4105C36.1151 10.1122 36.1747 9.77841 36.2344 9.40909C36.2969 9.04261 36.348 8.66761 36.3878 8.28409L36.4389 7.80682H37.5298ZM45.5465 9.11932C44.9613 9.11932 44.4442 9.01562 43.9954 8.80824C43.5494 8.59801 43.2013 8.30966 42.9513 7.94318C42.7013 7.57386 42.5778 7.15341 42.5806 6.68182C42.5778 6.3125 42.6502 5.97159 42.7979 5.65909C42.9457 5.34375 43.1474 5.08097 43.4031 4.87074C43.6616 4.65767 43.9499 4.52273 44.2681 4.46591V4.41477C43.8505 4.30682 43.5181 4.07244 43.271 3.71165C43.0238 3.34801 42.9016 2.93466 42.9045 2.47159C42.9016 2.02841 43.0138 1.6321 43.2411 1.28267C43.4684 0.933238 43.7809 0.65767 44.1786 0.455966C44.5792 0.254261 45.0352 0.153409 45.5465 0.153409C46.0522 0.153409 46.5039 0.254261 46.9016 0.455966C47.2994 0.65767 47.6119 0.933238 47.8391 1.28267C48.0692 1.6321 48.1857 2.02841 48.1886 2.47159C48.1857 2.93466 48.0593 3.34801 47.8093 3.71165C47.5621 4.07244 47.234 4.30682 46.8249 4.41477V4.46591C47.1403 4.52273 47.4244 4.65767 47.6772 4.87074C47.93 5.08097 48.1317 5.34375 48.2823 5.65909C48.4329 5.97159 48.5096 6.3125 48.5124 6.68182C48.5096 7.15341 48.3817 7.57386 48.1289 7.94318C47.8789 8.30966 47.5309 8.59801 47.0849 8.80824C46.6417 9.01562 46.1289 9.11932 45.5465 9.11932ZM45.5465 8.18182C45.9414 8.18182 46.2823 8.1179 46.5692 7.99006C46.8562 7.86222 47.0778 7.68182 47.234 7.44886C47.3903 7.21591 47.4698 6.94318 47.4727 6.63068C47.4698 6.30114 47.3846 6.00994 47.217 5.7571C47.0494 5.50426 46.8207 5.3054 46.5309 5.16051C46.244 5.01562 45.9158 4.94318 45.5465 4.94318C45.1744 4.94318 44.842 5.01562 44.5494 5.16051C44.2596 5.3054 44.0309 5.50426 43.8633 5.7571C43.6985 6.00994 43.6175 6.30114 43.6204 6.63068C43.6175 6.94318 43.6928 7.21591 43.8462 7.44886C44.0025 7.68182 44.2255 7.86222 44.5153 7.99006C44.805 8.1179 45.1488 8.18182 45.5465 8.18182ZM45.5465 4.03977C45.859 4.03977 46.136 3.97727 46.3775 3.85227C46.6218 3.72727 46.8136 3.55256 46.9528 3.32812C47.092 3.10369 47.163 2.84091 47.1658 2.53977C47.163 2.24432 47.0934 1.98722 46.957 1.76847C46.8207 1.54687 46.6317 1.37642 46.3903 1.2571C46.1488 1.13494 45.8675 1.07386 45.5465 1.07386C45.2198 1.07386 44.9343 1.13494 44.69 1.2571C44.4457 1.37642 44.2567 1.54687 44.1232 1.76847C43.9897 1.98722 43.9244 2.24432 43.9272 2.53977C43.9244 2.84091 43.9911 3.10369 44.1275 3.32812C44.2667 3.55256 44.4585 3.72727 44.7028 3.85227C44.9471 3.97727 45.2283 4.03977 45.5465 4.03977ZM50.6261 9.06818C50.4158 9.06818 50.2354 8.9929 50.0849 8.84233C49.9343 8.69176 49.859 8.51136 49.859 8.30114C49.859 8.09091 49.9343 7.91051 50.0849 7.75994C50.2354 7.60937 50.4158 7.53409 50.6261 7.53409C50.8363 7.53409 51.0167 7.60937 51.1673 7.75994C51.3178 7.91051 51.3931 8.09091 51.3931 8.30114C51.3931 8.44034 51.3576 8.56818 51.2866 8.68466C51.2184 8.80114 51.1261 8.89489 51.0096 8.96591C50.896 9.03409 50.7681 9.06818 50.6261 9.06818ZM53.9308 9.06818C53.7205 9.06818 53.5401 8.9929 53.3896 8.84233C53.239 8.69176 53.1637 8.51136 53.1637 8.30114C53.1637 8.09091 53.239 7.91051 53.3896 7.75994C53.5401 7.60937 53.7205 7.53409 53.9308 7.53409C54.141 7.53409 54.3214 7.60937 54.4719 7.75994C54.6225 7.91051 54.6978 8.09091 54.6978 8.30114C54.6978 8.44034 54.6623 8.56818 54.5913 8.68466C54.5231 8.80114 54.4308 8.89489 54.3143 8.96591C54.2006 9.03409 54.0728 9.06818 53.9308 9.06818ZM57.2354 9.06818C57.0252 9.06818 56.8448 8.9929 56.6942 8.84233C56.5437 8.69176 56.4684 8.51136 56.4684 8.30114C56.4684 8.09091 56.5437 7.91051 56.6942 7.75994C56.8448 7.60937 57.0252 7.53409 57.2354 7.53409C57.4457 7.53409 57.6261 7.60937 57.7766 7.75994C57.9272 7.91051 58.0025 8.09091 58.0025 8.30114C58.0025 8.44034 57.967 8.56818 57.896 8.68466C57.8278 8.80114 57.7354 8.89489 57.619 8.96591C57.5053 9.03409 57.3775 9.06818 57.2354 9.06818Z" fill="#FBFBFB"/>
</svg>
