<svg width="64" height="12" viewBox="0 0 64 12" fill="none" xmlns="http://www.w3.org/2000/svg">
<path d="M0.903409 9V8.23295L3.78409 5.07955C4.12216 4.71023 4.40057 4.3892 4.61932 4.11648C4.83807 3.84091 5 3.58239 5.10511 3.34091C5.21307 3.09659 5.26705 2.84091 5.26705 2.57386C5.26705 2.26705 5.19318 2.00142 5.04545 1.77699C4.90057 1.55256 4.7017 1.37926 4.44886 1.2571C4.19602 1.13494 3.91193 1.07386 3.59659 1.07386C3.26136 1.07386 2.96875 1.14347 2.71875 1.28267C2.47159 1.41903 2.27983 1.6108 2.14347 1.85795C2.00994 2.10511 1.94318 2.39489 1.94318 2.72727H0.9375C0.9375 2.21591 1.0554 1.76705 1.29119 1.38068C1.52699 0.994318 1.84801 0.693181 2.25426 0.477272C2.66335 0.261363 3.12216 0.153409 3.63068 0.153409C4.14205 0.153409 4.59517 0.261363 4.99006 0.477272C5.38494 0.693181 5.6946 0.984375 5.91903 1.35085C6.14347 1.71733 6.25568 2.125 6.25568 2.57386C6.25568 2.89489 6.19744 3.20881 6.08097 3.51562C5.96733 3.8196 5.76847 4.15909 5.48438 4.53409C5.20312 4.90625 4.8125 5.3608 4.3125 5.89773L2.35227 7.99432V8.0625H6.40909V9H0.903409ZM9.68608 7.80682L9.6179 8.26705C9.5696 8.59091 9.49574 8.9375 9.39631 9.30682C9.29972 9.67614 9.19886 10.0241 9.09375 10.3509C8.98864 10.6776 8.90199 10.9375 8.83381 11.1307H8.06676C8.10369 10.9489 8.15199 10.7088 8.21165 10.4105C8.27131 10.1122 8.33097 9.77841 8.39062 9.40909C8.45312 9.04261 8.50426 8.66761 8.54403 8.28409L8.59517 7.80682H9.68608ZM14.7028 7.21023V6.34091L18.538 0.272727H19.1687V1.61932H18.7425L15.8448 6.20455V6.27273H21.0096V7.21023H14.7028ZM18.8107 9V6.94602V6.54119V0.272727H19.8164V9H18.8107ZM23.7134 7.80682L23.6452 8.26705C23.5969 8.59091 23.5231 8.9375 23.4237 9.30682C23.3271 9.67614 23.2262 10.0241 23.1211 10.3509C23.016 10.6776 22.9293 10.9375 22.8612 11.1307H22.0941C22.131 10.9489 22.1793 10.7088 22.239 10.4105C22.2987 10.1122 22.3583 9.77841 22.418 9.40909C22.4805 9.04261 22.5316 8.66761 22.5714 8.28409L22.6225 7.80682H23.7134ZM31.7301 9.11932C31.1449 9.11932 30.6278 9.01562 30.179 8.80824C29.733 8.59801 29.3849 8.30966 29.1349 7.94318C28.8849 7.57386 28.7614 7.15341 28.7642 6.68182C28.7614 6.3125 28.8338 5.97159 28.9815 5.65909C29.1293 5.34375 29.331 5.08097 29.5866 4.87074C29.8452 4.65767 30.1335 4.52273 30.4517 4.46591V4.41477C30.0341 4.30682 29.7017 4.07244 29.4545 3.71165C29.2074 3.34801 29.0852 2.93466 29.0881 2.47159C29.0852 2.02841 29.1974 1.6321 29.4247 1.28267C29.652 0.933238 29.9645 0.65767 30.3622 0.455966C30.7628 0.254261 31.2188 0.153409 31.7301 0.153409C32.2358 0.153409 32.6875 0.254261 33.0852 0.455966C33.483 0.65767 33.7955 0.933238 34.0227 1.28267C34.2528 1.6321 34.3693 2.02841 34.3722 2.47159C34.3693 2.93466 34.2429 3.34801 33.9929 3.71165C33.7457 4.07244 33.4176 4.30682 33.0085 4.41477V4.46591C33.3239 4.52273 33.608 4.65767 33.8608 4.87074C34.1136 5.08097 34.3153 5.34375 34.4659 5.65909C34.6165 5.97159 34.6932 6.3125 34.696 6.68182C34.6932 7.15341 34.5653 7.57386 34.3125 7.94318C34.0625 8.30966 33.7145 8.59801 33.2685 8.80824C32.8253 9.01562 32.3125 9.11932 31.7301 9.11932ZM31.7301 8.18182C32.125 8.18182 32.4659 8.1179 32.7528 7.99006C33.0398 7.86222 33.2614 7.68182 33.4176 7.44886C33.5739 7.21591 33.6534 6.94318 33.6562 6.63068C33.6534 6.30114 33.5682 6.00994 33.4006 5.7571C33.233 5.50426 33.0043 5.3054 32.7145 5.16051C32.4276 5.01562 32.0994 4.94318 31.7301 4.94318C31.358 4.94318 31.0256 5.01562 30.733 5.16051C30.4432 5.3054 30.2145 5.50426 30.0469 5.7571C29.8821 6.00994 29.8011 6.30114 29.804 6.63068C29.8011 6.94318 29.8764 7.21591 30.0298 7.44886C30.1861 7.68182 30.4091 7.86222 30.6989 7.99006C30.9886 8.1179 31.3324 8.18182 31.7301 8.18182ZM31.7301 4.03977C32.0426 4.03977 32.3196 3.97727 32.5611 3.85227C32.8054 3.72727 32.9972 3.55256 33.1364 3.32812C33.2756 3.10369 33.3466 2.84091 33.3494 2.53977C33.3466 2.24432 33.277 1.98722 33.1406 1.76847C33.0043 1.54687 32.8153 1.37642 32.5739 1.2571C32.3324 1.13494 32.0511 1.07386 31.7301 1.07386C31.4034 1.07386 31.1179 1.13494 30.8736 1.2571C30.6293 1.37642 30.4403 1.54687 30.3068 1.76847C30.1733 1.98722 30.108 2.24432 30.1108 2.53977C30.108 2.84091 30.1747 3.10369 30.3111 3.32812C30.4503 3.55256 30.642 3.72727 30.8864 3.85227C31.1307 3.97727 31.4119 4.03977 31.7301 4.03977ZM37.5767 7.80682L37.5085 8.26705C37.4602 8.59091 37.3864 8.9375 37.2869 9.30682C37.1903 9.67614 37.0895 10.0241 36.9844 10.3509C36.8793 10.6776 36.7926 10.9375 36.7244 11.1307H35.9574C35.9943 10.9489 36.0426 10.7088 36.1023 10.4105C36.1619 10.1122 36.2216 9.77841 36.2812 9.40909C36.3438 9.04261 36.3949 8.66761 36.4347 8.28409L36.4858 7.80682H37.5767ZM45.8661 0.272727V9H44.8093V1.38068H44.7582L42.6275 2.79545V1.72159L44.8093 0.272727H45.8661ZM51.2738 9.11932C50.9158 9.11364 50.5579 9.04545 50.1999 8.91477C49.842 8.78409 49.5153 8.56392 49.2198 8.25426C48.9244 7.94176 48.6871 7.51989 48.5082 6.98864C48.3292 6.45455 48.2397 5.78409 48.2397 4.97727C48.2397 4.20455 48.3121 3.51989 48.457 2.9233C48.6019 2.32386 48.8121 1.8196 49.0877 1.41051C49.3633 0.99858 49.6957 0.686079 50.0849 0.473011C50.4769 0.259943 50.9187 0.153409 51.4102 0.153409C51.8988 0.153409 52.3335 0.25142 52.7141 0.447443C53.0977 0.640625 53.4102 0.910511 53.6516 1.2571C53.8931 1.60369 54.0494 2.00284 54.1204 2.45455H53.0806C52.984 2.0625 52.7965 1.73722 52.5181 1.47869C52.2397 1.22017 51.8704 1.09091 51.4102 1.09091C50.734 1.09091 50.2013 1.38494 49.8121 1.97301C49.4258 2.56108 49.2312 3.38636 49.2283 4.44886H49.2965C49.4556 4.20739 49.6445 4.00142 49.8633 3.83097C50.0849 3.65767 50.3292 3.52415 50.5962 3.4304C50.8633 3.33665 51.146 3.28977 51.4442 3.28977C51.9442 3.28977 52.4016 3.41477 52.8164 3.66477C53.2312 3.91193 53.5636 4.25426 53.8136 4.69176C54.0636 5.12642 54.1886 5.625 54.1886 6.1875C54.1886 6.72727 54.0678 7.22159 53.8263 7.67045C53.5849 8.11648 53.2454 8.47159 52.8079 8.7358C52.3732 8.99716 51.8619 9.125 51.2738 9.11932ZM51.2738 8.18182C51.6317 8.18182 51.9528 8.09233 52.2369 7.91335C52.5238 7.73437 52.7496 7.49432 52.9144 7.19318C53.082 6.89205 53.1658 6.55682 53.1658 6.1875C53.1658 5.8267 53.0849 5.49858 52.9229 5.20312C52.7638 4.90483 52.5437 4.66761 52.2624 4.49148C51.984 4.31534 51.6658 4.22727 51.3079 4.22727C51.038 4.22727 50.7866 4.28125 50.5536 4.3892C50.3207 4.49432 50.1161 4.6392 49.94 4.82386C49.7667 5.00852 49.6303 5.22017 49.5309 5.45881C49.4315 5.6946 49.3817 5.94318 49.3817 6.20455C49.3817 6.55114 49.4627 6.875 49.6246 7.17614C49.7894 7.47727 50.0138 7.72017 50.2979 7.90483C50.5849 8.08949 50.9102 8.18182 51.2738 8.18182ZM56.2042 9.06818C55.994 9.06818 55.8136 8.9929 55.663 8.84233C55.5124 8.69176 55.4371 8.51136 55.4371 8.30114C55.4371 8.09091 55.5124 7.91051 55.663 7.75994C55.8136 7.60937 55.994 7.53409 56.2042 7.53409C56.4144 7.53409 56.5948 7.60937 56.7454 7.75994C56.896 7.91051 56.9712 8.09091 56.9712 8.30114C56.9712 8.44034 56.9357 8.56818 56.8647 8.68466C56.7965 8.80114 56.7042 8.89489 56.5877 8.96591C56.4741 9.03409 56.3462 9.06818 56.2042 9.06818ZM59.5089 9.06818C59.2987 9.06818 59.1183 8.9929 58.9677 8.84233C58.8171 8.69176 58.7418 8.51136 58.7418 8.30114C58.7418 8.09091 58.8171 7.91051 58.9677 7.75994C59.1183 7.60937 59.2987 7.53409 59.5089 7.53409C59.7191 7.53409 59.8995 7.60937 60.0501 7.75994C60.2006 7.91051 60.2759 8.09091 60.2759 8.30114C60.2759 8.44034 60.2404 8.56818 60.1694 8.68466C60.1012 8.80114 60.0089 8.89489 59.8924 8.96591C59.7788 9.03409 59.6509 9.06818 59.5089 9.06818ZM62.8136 9.06818C62.6033 9.06818 62.4229 8.9929 62.2724 8.84233C62.1218 8.69176 62.0465 8.51136 62.0465 8.30114C62.0465 8.09091 62.1218 7.91051 62.2724 7.75994C62.4229 7.60937 62.6033 7.53409 62.8136 7.53409C63.0238 7.53409 63.2042 7.60937 63.3548 7.75994C63.5053 7.91051 63.5806 8.09091 63.5806 8.30114C63.5806 8.44034 63.5451 8.56818 63.4741 8.68466C63.4059 8.80114 63.3136 8.89489 63.1971 8.96591C63.0835 9.03409 62.9556 9.06818 62.8136 9.06818Z" fill="#FBFBFB"/>
</svg>
