<svg width="121" height="49" viewBox="0 0 121 49" fill="none" xmlns="http://www.w3.org/2000/svg">
<path d="M27 2L2.5 42H120L27 2Z" stroke="#FBFBFB" stroke-width="2"/>
<path d="M27 2V42" stroke="#FBFBFB" stroke-width="2"/>
<path d="M59.5284 48V43.6364H60.0312V45.2472H60.0739C60.1108 45.1903 60.1619 45.1179 60.2273 45.0298C60.294 44.9403 60.3892 44.8608 60.5128 44.7912C60.6378 44.7202 60.8068 44.6847 61.0199 44.6847C61.2955 44.6847 61.5384 44.7536 61.7486 44.8913C61.9588 45.0291 62.1229 45.2244 62.2408 45.4773C62.3587 45.7301 62.4176 46.0284 62.4176 46.3722C62.4176 46.7188 62.3587 47.0192 62.2408 47.2734C62.1229 47.5263 61.9595 47.7223 61.7507 47.8615C61.5419 47.9993 61.3011 48.0682 61.0284 48.0682C60.8182 48.0682 60.6499 48.0334 60.5234 47.9638C60.397 47.8928 60.2997 47.8125 60.2315 47.723C60.1634 47.6321 60.1108 47.5568 60.0739 47.4972H60.0142V48H59.5284ZM60.0227 46.3636C60.0227 46.6108 60.0589 46.8288 60.1314 47.0178C60.2038 47.2053 60.3097 47.3523 60.4489 47.4588C60.5881 47.5639 60.7585 47.6165 60.9602 47.6165C61.1705 47.6165 61.3459 47.5611 61.4865 47.4503C61.6286 47.3381 61.7351 47.1875 61.8061 46.9986C61.8786 46.8082 61.9148 46.5966 61.9148 46.3636C61.9148 46.1335 61.8793 45.9261 61.8082 45.7415C61.7386 45.5554 61.6328 45.4084 61.4908 45.3004C61.3501 45.1911 61.1733 45.1364 60.9602 45.1364C60.7557 45.1364 60.5838 45.1882 60.4446 45.2919C60.3054 45.3942 60.2003 45.5376 60.1293 45.7223C60.0582 45.9055 60.0227 46.1193 60.0227 46.3636Z" fill="#FBFBFB"/>
<path d="M30.9631 22.0312V24H30.4602V19.6364H30.9631V21.2386H31.0057C31.0824 21.0696 31.1974 20.9354 31.3509 20.8359C31.5057 20.7351 31.7116 20.6847 31.9688 20.6847C32.1918 20.6847 32.3871 20.7294 32.5547 20.8189C32.7223 20.907 32.8523 21.0426 32.9446 21.2259C33.0384 21.4077 33.0852 21.6392 33.0852 21.9205V24H32.5824V21.9545C32.5824 21.6946 32.5149 21.4936 32.38 21.3516C32.2464 21.2081 32.0611 21.1364 31.8239 21.1364C31.6591 21.1364 31.5114 21.1712 31.3807 21.2408C31.2514 21.3104 31.1491 21.4119 31.0739 21.5455C31 21.679 30.9631 21.8409 30.9631 22.0312Z" fill="#FBFBFB"/>
<path d="M12.9742 20.2698C12.8705 20.4494 12.7426 20.5929 12.5904 20.7002C12.437 20.8069 12.2709 20.8659 12.092 20.8775C11.9119 20.8883 11.7296 20.8404 11.545 20.7339C11.3827 20.6402 11.2695 20.5322 11.2056 20.41C11.1404 20.2871 11.1098 20.1554 11.1138 20.015C11.1177 19.8746 11.1429 19.7316 11.1891 19.5861C11.2349 19.4387 11.2872 19.2942 11.3459 19.1526C11.4232 18.9676 11.4872 18.8184 11.538 18.705C11.5882 18.5896 11.6133 18.4992 11.6134 18.4336C11.6143 18.3669 11.5796 18.3132 11.5095 18.2728L11.4947 18.2642C11.3127 18.1591 11.1424 18.1273 10.984 18.1687C10.8263 18.2088 10.6896 18.3292 10.5738 18.5297C10.4538 18.7376 10.4052 18.9269 10.4281 19.0975C10.4509 19.2682 10.5002 19.4073 10.5758 19.515L10.1895 19.8431C10.0599 19.6698 9.98267 19.494 9.95774 19.3156C9.93229 19.1352 9.94276 18.9608 9.98914 18.7924C10.035 18.6221 10.0991 18.4656 10.1815 18.3229C10.2341 18.2318 10.3055 18.1337 10.3958 18.0284C10.4856 17.9211 10.5957 17.8313 10.7261 17.7589C10.8571 17.6854 11.011 17.6504 11.1877 17.654C11.3644 17.6576 11.5653 17.7244 11.7904 17.8543L13.6578 18.9325L13.4064 19.3679L13.0226 19.1463L13.0098 19.1685C13.0543 19.2335 13.0917 19.3207 13.122 19.4301C13.1523 19.5395 13.1591 19.6656 13.1423 19.8084C13.1254 19.9512 13.0694 20.105 12.9742 20.2698ZM12.6214 19.9776C12.7208 19.8053 12.7708 19.6407 12.7713 19.4835C12.7726 19.3251 12.7371 19.1849 12.6648 19.0628C12.5933 18.9395 12.4985 18.8438 12.3804 18.7756L11.9819 18.5455C11.9934 18.5767 11.9902 18.629 11.9724 18.7024C11.9542 18.7739 11.9283 18.8541 11.895 18.9431C11.8611 19.0302 11.8271 19.1147 11.7929 19.1966C11.7582 19.2766 11.7304 19.3418 11.7096 19.3921C11.659 19.5138 11.6219 19.6334 11.5983 19.751C11.5742 19.8667 11.5773 19.9734 11.6077 20.0714C11.6376 20.1673 11.7079 20.2473 11.8186 20.3112C11.9699 20.3986 12.1166 20.4087 12.2588 20.3415C12.4004 20.2723 12.5213 20.151 12.6214 19.9776Z" fill="#FBFBFB"/>
<path d="M63.0159 15.1501C62.7502 14.9967 62.5576 14.8018 62.4381 14.5656C62.3187 14.3293 62.2708 14.0712 62.2946 13.7914C62.3184 13.5115 62.412 13.2301 62.5754 12.9472C62.7416 12.6593 62.9411 12.4358 63.174 12.2767C63.4089 12.1171 63.6575 12.0302 63.92 12.016C64.1843 12.0014 64.4444 12.0679 64.7003 12.2156C64.8996 12.3307 65.0579 12.4713 65.1752 12.6374C65.2925 12.8035 65.3638 12.9825 65.3892 13.1743C65.4146 13.3661 65.3885 13.5577 65.3108 13.749L64.8753 13.4976C64.9167 13.3493 64.9089 13.1923 64.8521 13.0266C64.7971 12.8604 64.6737 12.7219 64.4818 12.6111C64.312 12.513 64.1376 12.4714 63.9586 12.4861C63.7814 12.5003 63.611 12.5667 63.4473 12.6855C63.2856 12.8037 63.1429 12.9698 63.0194 13.1838C62.8929 13.4028 62.8173 13.6134 62.7924 13.8155C62.7688 14.0184 62.7944 14.2013 62.8693 14.3643C62.9454 14.5279 63.0695 14.6595 63.2418 14.7589C63.3549 14.8242 63.469 14.8639 63.584 14.8778C63.699 14.8917 63.8098 14.8802 63.9163 14.8433C64.0229 14.8064 64.1196 14.7441 64.2063 14.6564L64.6418 14.9078C64.5206 15.0609 64.3727 15.1765 64.1981 15.2545C64.0254 15.3319 63.837 15.3642 63.6329 15.3513C63.4307 15.3379 63.225 15.2708 63.0159 15.1501Z" fill="#FBFBFB"/>
</svg>
