<svg width="36" height="63" viewBox="0 0 36 63" fill="none" xmlns="http://www.w3.org/2000/svg">
<mask id="path-1-inside-1_313_73" fill="white">
<path fill-rule="evenodd" clip-rule="evenodd" d="M4 56.25H35.976L4 0.866026V56.25Z"/>
</mask>
<path d="M35.976 56.25V58.25H39.4401L37.708 55.25L35.976 56.25ZM4 56.25H2V58.25H4V56.25ZM4 0.866026L5.73205 -0.133974L2 -6.59808V0.866026H4ZM35.976 54.25H4V58.25H35.976V54.25ZM2.26795 1.86603L34.2439 57.25L37.708 55.25L5.73205 -0.133974L2.26795 1.86603ZM2 0.866026V56.25H6V0.866026H2Z" fill="#FBFBFB" mask="url(#path-1-inside-1_313_73)"/>
<path d="M1.4233 31.0767C1.21591 31.0767 1.0277 31.0376 0.858665 30.9595C0.689631 30.88 0.555398 30.7656 0.455966 30.6165C0.356534 30.4659 0.306818 30.2841 0.306818 30.071C0.306818 29.8835 0.34375 29.7315 0.417614 29.6151C0.491477 29.4972 0.590199 29.4048 0.713778 29.3381C0.837358 29.2713 0.973722 29.2216 1.12287 29.1889C1.27344 29.1548 1.42472 29.1278 1.5767 29.108C1.77557 29.0824 1.93679 29.0632 2.06037 29.0504C2.18537 29.0362 2.27628 29.0128 2.3331 28.9801C2.39134 28.9474 2.42045 28.8906 2.42045 28.8097V28.7926C2.42045 28.5824 2.36293 28.419 2.24787 28.3026C2.13423 28.1861 1.96165 28.1278 1.73011 28.1278C1.49006 28.1278 1.30185 28.1804 1.16548 28.2855C1.02912 28.3906 0.933239 28.5028 0.877841 28.6222L0.400568 28.4517C0.485795 28.2528 0.599432 28.098 0.741477 27.9872C0.884943 27.875 1.04119 27.7969 1.21023 27.7528C1.38068 27.7074 1.5483 27.6847 1.71307 27.6847C1.81818 27.6847 1.93892 27.6974 2.07528 27.723C2.21307 27.7472 2.34588 27.7976 2.47372 27.8743C2.60298 27.951 2.71023 28.0668 2.79545 28.2216C2.88068 28.3764 2.9233 28.5838 2.9233 28.8438V31H2.42045V30.5568H2.39489C2.3608 30.6278 2.30398 30.7038 2.22443 30.7848C2.14489 30.8658 2.03906 30.9347 1.90696 30.9915C1.77486 31.0483 1.61364 31.0767 1.4233 31.0767ZM1.5 30.625C1.69886 30.625 1.86648 30.5859 2.00284 30.5078C2.14063 30.4297 2.24432 30.3288 2.31392 30.2053C2.38494 30.0817 2.42045 29.9517 2.42045 29.8153V29.3551C2.39915 29.3807 2.35227 29.4041 2.27983 29.4254C2.20881 29.4453 2.12642 29.4631 2.03267 29.4787C1.94034 29.4929 1.85014 29.5057 1.76207 29.517C1.67543 29.527 1.60511 29.5355 1.55114 29.5426C1.42045 29.5597 1.2983 29.5874 1.18466 29.6257C1.07244 29.6626 0.981534 29.7187 0.911932 29.794C0.84375 29.8679 0.809659 29.9687 0.809659 30.0966C0.809659 30.2713 0.87429 30.4034 1.00355 30.4929C1.13423 30.581 1.29972 30.625 1.5 30.625Z" fill="#FBFBFB"/>
<path d="M1.4233 31.0767C1.21591 31.0767 1.0277 31.0376 0.858665 30.9595C0.689631 30.88 0.555398 30.7656 0.455966 30.6165C0.356534 30.4659 0.306818 30.2841 0.306818 30.071C0.306818 29.8835 0.34375 29.7315 0.417614 29.6151C0.491477 29.4972 0.590199 29.4048 0.713778 29.3381C0.837358 29.2713 0.973722 29.2216 1.12287 29.1889C1.27344 29.1548 1.42472 29.1278 1.5767 29.108C1.77557 29.0824 1.93679 29.0632 2.06037 29.0504C2.18537 29.0362 2.27628 29.0128 2.3331 28.9801C2.39134 28.9474 2.42045 28.8906 2.42045 28.8097V28.7926C2.42045 28.5824 2.36293 28.419 2.24787 28.3026C2.13423 28.1861 1.96165 28.1278 1.73011 28.1278C1.49006 28.1278 1.30185 28.1804 1.16548 28.2855C1.02912 28.3906 0.933239 28.5028 0.877841 28.6222L0.400568 28.4517C0.485795 28.2528 0.599432 28.098 0.741477 27.9872C0.884943 27.875 1.04119 27.7969 1.21023 27.7528C1.38068 27.7074 1.5483 27.6847 1.71307 27.6847C1.81818 27.6847 1.93892 27.6974 2.07528 27.723C2.21307 27.7472 2.34588 27.7976 2.47372 27.8743C2.60298 27.951 2.71023 28.0668 2.79545 28.2216C2.88068 28.3764 2.9233 28.5838 2.9233 28.8438V31H2.42045V30.5568H2.39489C2.3608 30.6278 2.30398 30.7038 2.22443 30.7848C2.14489 30.8658 2.03906 30.9347 1.90696 30.9915C1.77486 31.0483 1.61364 31.0767 1.4233 31.0767ZM1.5 30.625C1.69886 30.625 1.86648 30.5859 2.00284 30.5078C2.14063 30.4297 2.24432 30.3288 2.31392 30.2053C2.38494 30.0817 2.42045 29.9517 2.42045 29.8153V29.3551C2.39915 29.3807 2.35227 29.4041 2.27983 29.4254C2.20881 29.4453 2.12642 29.4631 2.03267 29.4787C1.94034 29.4929 1.85014 29.5057 1.76207 29.517C1.67543 29.527 1.60511 29.5355 1.55114 29.5426C1.42045 29.5597 1.2983 29.5874 1.18466 29.6257C1.07244 29.6626 0.981534 29.7187 0.911932 29.794C0.84375 29.8679 0.809659 29.9687 0.809659 30.0966C0.809659 30.2713 0.87429 30.4034 1.00355 30.4929C1.13423 30.581 1.29972 30.625 1.5 30.625Z" fill="#FBFBFB"/>
<path d="M18.5284 62V57.6364H19.0312V59.2472H19.0739C19.1108 59.1903 19.1619 59.1179 19.2273 59.0298C19.294 58.9403 19.3892 58.8608 19.5128 58.7912C19.6378 58.7202 19.8068 58.6847 20.0199 58.6847C20.2955 58.6847 20.5384 58.7536 20.7486 58.8913C20.9588 59.0291 21.1229 59.2244 21.2408 59.4773C21.3587 59.7301 21.4176 60.0284 21.4176 60.3722C21.4176 60.7188 21.3587 61.0192 21.2408 61.2734C21.1229 61.5263 20.9595 61.7223 20.7507 61.8615C20.5419 61.9993 20.3011 62.0682 20.0284 62.0682C19.8182 62.0682 19.6499 62.0334 19.5234 61.9638C19.397 61.8928 19.2997 61.8125 19.2315 61.723C19.1634 61.6321 19.1108 61.5568 19.0739 61.4972H19.0142V62H18.5284ZM19.0227 60.3636C19.0227 60.6108 19.0589 60.8288 19.1314 61.0178C19.2038 61.2053 19.3097 61.3523 19.4489 61.4588C19.5881 61.5639 19.7585 61.6165 19.9602 61.6165C20.1705 61.6165 20.3459 61.5611 20.4865 61.4503C20.6286 61.3381 20.7351 61.1875 20.8061 60.9986C20.8786 60.8082 20.9148 60.5966 20.9148 60.3636C20.9148 60.1335 20.8793 59.9261 20.8082 59.7415C20.7386 59.5554 20.6328 59.4084 20.4908 59.3004C20.3501 59.1911 20.1733 59.1364 19.9602 59.1364C19.7557 59.1364 19.5838 59.1882 19.4446 59.2919C19.3054 59.3942 19.2003 59.5376 19.1293 59.7223C19.0582 59.9055 19.0227 60.1193 19.0227 60.3636Z" fill="#FBFBFB"/>
<path d="M18.5284 62V57.6364H19.0312V59.2472H19.0739C19.1108 59.1903 19.1619 59.1179 19.2273 59.0298C19.294 58.9403 19.3892 58.8608 19.5128 58.7912C19.6378 58.7202 19.8068 58.6847 20.0199 58.6847C20.2955 58.6847 20.5384 58.7536 20.7486 58.8913C20.9588 59.0291 21.1229 59.2244 21.2408 59.4773C21.3587 59.7301 21.4176 60.0284 21.4176 60.3722C21.4176 60.7188 21.3587 61.0192 21.2408 61.2734C21.1229 61.5263 20.9595 61.7223 20.7507 61.8615C20.5419 61.9993 20.3011 62.0682 20.0284 62.0682C19.8182 62.0682 19.6499 62.0334 19.5234 61.9638C19.397 61.8928 19.2997 61.8125 19.2315 61.723C19.1634 61.6321 19.1108 61.5568 19.0739 61.4972H19.0142V62H18.5284ZM19.0227 60.3636C19.0227 60.6108 19.0589 60.8288 19.1314 61.0178C19.2038 61.2053 19.3097 61.3523 19.4489 61.4588C19.5881 61.5639 19.7585 61.6165 19.9602 61.6165C20.1705 61.6165 20.3459 61.5611 20.4865 61.4503C20.6286 61.3381 20.7351 61.1875 20.8061 60.9986C20.8786 60.8082 20.9148 60.5966 20.9148 60.3636C20.9148 60.1335 20.8793 59.9261 20.8082 59.7415C20.7386 59.5554 20.6328 59.4084 20.4908 59.3004C20.3501 59.1911 20.1733 59.1364 19.9602 59.1364C19.7557 59.1364 19.5838 59.1882 19.4446 59.2919C19.3054 59.3942 19.2003 59.5376 19.1293 59.7223C19.0582 59.9055 19.0227 60.1193 19.0227 60.3636Z" fill="#FBFBFB"/>
<path d="M23.7898 31.0682C23.483 31.0682 23.2188 30.9957 22.9972 30.8509C22.7756 30.706 22.6051 30.5064 22.4858 30.2521C22.3665 29.9979 22.3068 29.7074 22.3068 29.3807C22.3068 29.0483 22.3679 28.755 22.4901 28.5007C22.6136 28.245 22.7855 28.0455 23.0057 27.902C23.2273 27.7571 23.4858 27.6847 23.7812 27.6847C24.0114 27.6847 24.2188 27.7273 24.4034 27.8125C24.5881 27.8977 24.7393 28.017 24.8572 28.1705C24.9751 28.3239 25.0483 28.5028 25.0767 28.7074H24.5739C24.5355 28.5582 24.4503 28.4261 24.3182 28.3111C24.1875 28.1946 24.0114 28.1364 23.7898 28.1364C23.5938 28.1364 23.4219 28.1875 23.2741 28.2898C23.1278 28.3906 23.0135 28.5334 22.9311 28.718C22.8501 28.9013 22.8097 29.1165 22.8097 29.3636C22.8097 29.6165 22.8494 29.8366 22.929 30.0241C23.0099 30.2116 23.1236 30.3572 23.2699 30.4609C23.4176 30.5646 23.5909 30.6165 23.7898 30.6165C23.9205 30.6165 24.0391 30.5938 24.1456 30.5483C24.2521 30.5028 24.3423 30.4375 24.4162 30.3523C24.4901 30.267 24.5426 30.1648 24.5739 30.0455H25.0767C25.0483 30.2386 24.978 30.4126 24.8658 30.5675C24.755 30.7209 24.608 30.843 24.4247 30.9339C24.2429 31.0234 24.0313 31.0682 23.7898 31.0682Z" fill="#FBFBFB"/>
<path d="M23.7898 31.0682C23.483 31.0682 23.2188 30.9957 22.9972 30.8509C22.7756 30.706 22.6051 30.5064 22.4858 30.2521C22.3665 29.9979 22.3068 29.7074 22.3068 29.3807C22.3068 29.0483 22.3679 28.755 22.4901 28.5007C22.6136 28.245 22.7855 28.0455 23.0057 27.902C23.2273 27.7571 23.4858 27.6847 23.7812 27.6847C24.0114 27.6847 24.2188 27.7273 24.4034 27.8125C24.5881 27.8977 24.7393 28.017 24.8572 28.1705C24.9751 28.3239 25.0483 28.5028 25.0767 28.7074H24.5739C24.5355 28.5582 24.4503 28.4261 24.3182 28.3111C24.1875 28.1946 24.0114 28.1364 23.7898 28.1364C23.5938 28.1364 23.4219 28.1875 23.2741 28.2898C23.1278 28.3906 23.0135 28.5334 22.9311 28.718C22.8501 28.9013 22.8097 29.1165 22.8097 29.3636C22.8097 29.6165 22.8494 29.8366 22.929 30.0241C23.0099 30.2116 23.1236 30.3572 23.2699 30.4609C23.4176 30.5646 23.5909 30.6165 23.7898 30.6165C23.9205 30.6165 24.0391 30.5938 24.1456 30.5483C24.2521 30.5028 24.3423 30.4375 24.4162 30.3523C24.4901 30.267 24.5426 30.1648 24.5739 30.0455H25.0767C25.0483 30.2386 24.978 30.4126 24.8658 30.5675C24.755 30.7209 24.608 30.843 24.4247 30.9339C24.2429 31.0234 24.0313 31.0682 23.7898 31.0682Z" fill="#FBFBFB"/>
</svg>
