<svg width="151" height="96" viewBox="0 0 151 96" fill="none" xmlns="http://www.w3.org/2000/svg">
<path d="M6 10H106L107 11.5" stroke="#FBFBFB" stroke-width="2"/>
<line x1="6" y1="85" x2="149" y2="85" stroke="#FBFBFB" stroke-width="2"/>
<line x1="106.868" y1="10.5026" x2="149.868" y2="85.5026" stroke="#FBFBFB" stroke-width="2"/>
<line x1="7" y1="10" x2="7" y2="84" stroke="#FBFBFB" stroke-width="2"/>
<path d="M104.5 10V85" stroke="#FBFBFB" stroke-width="2"/>
<path d="M99.9631 48.0312V50H99.4602V45.6364H99.9631V47.2386H100.006C100.082 47.0696 100.197 46.9354 100.351 46.8359C100.506 46.7351 100.712 46.6847 100.969 46.6847C101.192 46.6847 101.387 46.7294 101.555 46.8189C101.722 46.907 101.852 47.0426 101.945 47.2259C102.038 47.4077 102.085 47.6392 102.085 47.9205V50H101.582V47.9545C101.582 47.6946 101.515 47.4936 101.38 47.3516C101.246 47.2081 101.061 47.1364 100.824 47.1364C100.659 47.1364 100.511 47.1712 100.381 47.2408C100.251 47.3104 100.149 47.4119 100.074 47.5455C100 47.679 99.9631 47.8409 99.9631 48.0312Z" fill="#FBFBFB"/>
<path d="M1.78977 50.0682C1.48295 50.0682 1.21875 49.9957 0.997159 49.8509C0.775568 49.706 0.605114 49.5064 0.485795 49.2521C0.366477 48.9979 0.306818 48.7074 0.306818 48.3807C0.306818 48.0483 0.367898 47.755 0.490057 47.5007C0.613636 47.245 0.785511 47.0455 1.00568 46.902C1.22727 46.7571 1.4858 46.6847 1.78125 46.6847C2.01136 46.6847 2.21875 46.7273 2.40341 46.8125C2.58807 46.8977 2.73935 47.017 2.85724 47.1705C2.97514 47.3239 3.0483 47.5028 3.0767 47.7074H2.57386C2.53551 47.5582 2.45028 47.4261 2.31818 47.3111C2.1875 47.1946 2.01136 47.1364 1.78977 47.1364C1.59375 47.1364 1.42188 47.1875 1.27415 47.2898C1.12784 47.3906 1.01349 47.5334 0.931108 47.718C0.850142 47.9013 0.809659 48.1165 0.809659 48.3636C0.809659 48.6165 0.849432 48.8366 0.928977 49.0241C1.00994 49.2116 1.12358 49.3572 1.26989 49.4609C1.41761 49.5646 1.59091 49.6165 1.78977 49.6165C1.92045 49.6165 2.03906 49.5938 2.1456 49.5483C2.25213 49.5028 2.34233 49.4375 2.41619 49.3523C2.49006 49.267 2.54261 49.1648 2.57386 49.0455H3.0767C3.0483 49.2386 2.97798 49.4126 2.86577 49.5675C2.75497 49.7209 2.60795 49.843 2.42472 49.9339C2.2429 50.0234 2.03125 50.0682 1.78977 50.0682Z" fill="#FBFBFB"/>
<path d="M54.5284 6V1.63636H55.0312V3.24716H55.0739C55.1108 3.19034 55.1619 3.1179 55.2273 3.02983C55.294 2.94034 55.3892 2.8608 55.5128 2.79119C55.6378 2.72017 55.8068 2.68466 56.0199 2.68466C56.2955 2.68466 56.5384 2.75355 56.7486 2.89134C56.9588 3.02912 57.1229 3.22443 57.2408 3.47727C57.3587 3.73011 57.4176 4.02841 57.4176 4.37216C57.4176 4.71875 57.3587 5.01918 57.2408 5.27344C57.1229 5.52628 56.9595 5.7223 56.7507 5.86151C56.5419 5.99929 56.3011 6.06818 56.0284 6.06818C55.8182 6.06818 55.6499 6.03338 55.5234 5.96378C55.397 5.89276 55.2997 5.8125 55.2315 5.72301C55.1634 5.6321 55.1108 5.55682 55.0739 5.49716H55.0142V6H54.5284ZM55.0227 4.36364C55.0227 4.6108 55.0589 4.82884 55.1314 5.01776C55.2038 5.20526 55.3097 5.35227 55.4489 5.45881C55.5881 5.56392 55.7585 5.61648 55.9602 5.61648C56.1705 5.61648 56.3459 5.56108 56.4865 5.45028C56.6286 5.33807 56.7351 5.1875 56.8061 4.99858C56.8786 4.80824 56.9148 4.59659 56.9148 4.36364C56.9148 4.13352 56.8793 3.92614 56.8082 3.74148C56.7386 3.5554 56.6328 3.40838 56.4908 3.30043C56.3501 3.19105 56.1733 3.13636 55.9602 3.13636C55.7557 3.13636 55.5838 3.18821 55.4446 3.2919C55.3054 3.39418 55.2003 3.53764 55.1293 3.7223C55.0582 3.90554 55.0227 4.11932 55.0227 4.36364ZM58.1783 6V5.61648L59.6186 4.03977C59.7876 3.85511 59.9268 3.6946 60.0362 3.55824C60.1456 3.42045 60.2266 3.29119 60.2791 3.17045C60.3331 3.0483 60.3601 2.92045 60.3601 2.78693C60.3601 2.63352 60.3232 2.50071 60.2493 2.38849C60.1768 2.27628 60.0774 2.18963 59.951 2.12855C59.8246 2.06747 59.6825 2.03693 59.5249 2.03693C59.3572 2.03693 59.2109 2.07173 59.0859 2.14134C58.9624 2.20952 58.8665 2.3054 58.7983 2.42898C58.7315 2.55256 58.6982 2.69744 58.6982 2.86364H58.1953C58.1953 2.60795 58.2543 2.38352 58.3722 2.19034C58.4901 1.99716 58.6506 1.84659 58.8537 1.73864C59.0582 1.63068 59.2876 1.5767 59.5419 1.5767C59.7976 1.5767 60.0241 1.63068 60.2216 1.73864C60.419 1.84659 60.5739 1.99219 60.6861 2.17543C60.7983 2.35866 60.8544 2.5625 60.8544 2.78693C60.8544 2.94744 60.8253 3.1044 60.767 3.25781C60.7102 3.4098 60.6108 3.57955 60.4688 3.76705C60.3281 3.95312 60.1328 4.1804 59.8828 4.44886L58.9027 5.49716V5.53125H60.9311V6H58.1783Z" fill="#FBFBFB"/>
<path d="M54.5284 95V90.6364H55.0312V92.2472H55.0739C55.1108 92.1903 55.1619 92.1179 55.2273 92.0298C55.294 91.9403 55.3892 91.8608 55.5128 91.7912C55.6378 91.7202 55.8068 91.6847 56.0199 91.6847C56.2955 91.6847 56.5384 91.7536 56.7486 91.8913C56.9588 92.0291 57.1229 92.2244 57.2408 92.4773C57.3587 92.7301 57.4176 93.0284 57.4176 93.3722C57.4176 93.7188 57.3587 94.0192 57.2408 94.2734C57.1229 94.5263 56.9595 94.7223 56.7507 94.8615C56.5419 94.9993 56.3011 95.0682 56.0284 95.0682C55.8182 95.0682 55.6499 95.0334 55.5234 94.9638C55.397 94.8928 55.2997 94.8125 55.2315 94.723C55.1634 94.6321 55.1108 94.5568 55.0739 94.4972H55.0142V95H54.5284ZM55.0227 93.3636C55.0227 93.6108 55.0589 93.8288 55.1314 94.0178C55.2038 94.2053 55.3097 94.3523 55.4489 94.4588C55.5881 94.5639 55.7585 94.6165 55.9602 94.6165C56.1705 94.6165 56.3459 94.5611 56.4865 94.4503C56.6286 94.3381 56.7351 94.1875 56.8061 93.9986C56.8786 93.8082 56.9148 93.5966 56.9148 93.3636C56.9148 93.1335 56.8793 92.9261 56.8082 92.7415C56.7386 92.5554 56.6328 92.4084 56.4908 92.3004C56.3501 92.1911 56.1733 92.1364 55.9602 92.1364C55.7557 92.1364 55.5838 92.1882 55.4446 92.2919C55.3054 92.3942 55.2003 92.5376 55.1293 92.7223C55.0582 92.9055 55.0227 93.1193 55.0227 93.3636ZM59.7124 90.6364V95H59.1839V91.1903H59.1584L58.093 91.8977V91.3608L59.1839 90.6364H59.7124Z" fill="#FBFBFB"/>
</svg>
